<svg width="165" height="43" viewBox="0 0 165 43" fill="none" xmlns="http://www.w3.org/2000/svg">
<path d="M53.7295 17.0505V26.2927H51.8252V17.0505H53.7295ZM57.4111 20.9988V22.4841H53.209V20.9988H57.4111ZM57.8555 17.0505V18.5422H53.209V17.0505H57.8555ZM61.4698 18.6311L58.9561 26.2927H56.9312L60.3653 17.0505H61.6539L61.4698 18.6311ZM63.5582 26.2927L61.0382 18.6311L60.835 17.0505H62.1363L65.5894 26.2927H63.5582ZM63.4439 22.8523V24.344H58.5626V22.8523H63.4439ZM72.3078 24.8074V26.2927H67.6549V24.8074H72.3078ZM68.2707 17.0505V26.2927H66.3664V17.0505H68.2707ZM79.5212 24.8074V26.2927H74.6018V24.8074H79.5212ZM75.2239 17.0505V26.2927H73.3196V17.0505H75.2239ZM78.8801 20.8147V22.262H74.6018V20.8147H78.8801ZM79.5149 17.0505V18.5422H74.6018V17.0505H79.5149ZM89.0668 23.2268H90.9647C90.9267 23.8489 90.7553 24.4011 90.4506 24.8835C90.1501 25.366 89.7291 25.7426 89.1874 26.0134C88.65 26.2843 88.0025 26.4197 87.245 26.4197C86.6526 26.4197 86.1215 26.3181 85.6518 26.115C85.182 25.9076 84.78 25.6114 84.4457 25.2263C84.1156 24.8412 83.8638 24.3757 83.6903 23.8298C83.5168 23.2839 83.4301 22.6724 83.4301 21.9954V21.3542C83.4301 20.6772 83.5189 20.0657 83.6967 19.5198C83.8786 18.9696 84.1368 18.502 84.4711 18.1169C84.8096 17.7319 85.2138 17.4356 85.6835 17.2283C86.1532 17.0209 86.678 16.9172 87.2577 16.9172C88.0279 16.9172 88.6775 17.0569 89.2064 17.3362C89.7396 17.6155 90.1522 18.0006 90.4442 18.4915C90.7405 18.9823 90.9182 19.5409 90.9774 20.1672H89.0731C89.052 19.7948 88.9779 19.4796 88.851 19.2214C88.724 18.9591 88.5315 18.7623 88.2733 18.6311C88.0194 18.4957 87.6809 18.428 87.2577 18.428C86.9403 18.428 86.6632 18.4872 86.4262 18.6057C86.1892 18.7242 85.9903 18.9041 85.8295 19.1453C85.6687 19.3865 85.5481 19.6912 85.4677 20.0593C85.3915 20.4233 85.3534 20.8507 85.3534 21.3416V21.9954C85.3534 22.4736 85.3894 22.8946 85.4613 23.2585C85.5333 23.6182 85.6433 23.9229 85.7914 24.1726C85.9438 24.4181 86.1384 24.6042 86.3754 24.7312C86.6166 24.8539 86.9065 24.9153 87.245 24.9153C87.6428 24.9153 87.9708 24.8518 88.2289 24.7249C88.487 24.5979 88.6838 24.4096 88.8192 24.1599C88.9589 23.9102 89.0414 23.5992 89.0668 23.2268ZM99.727 21.4558V21.8938C99.727 22.5963 99.6318 23.2268 99.4414 23.7854C99.251 24.344 98.9822 24.8201 98.6352 25.2136C98.2882 25.6029 97.8735 25.9013 97.3911 26.1086C96.9129 26.316 96.3818 26.4197 95.7978 26.4197C95.2181 26.4197 94.687 26.316 94.2046 26.1086C93.7264 25.9013 93.3117 25.6029 92.9604 25.2136C92.6092 24.8201 92.3362 24.344 92.1416 23.7854C91.9512 23.2268 91.8559 22.5963 91.8559 21.8938V21.4558C91.8559 20.7491 91.9512 20.1186 92.1416 19.5642C92.332 19.0056 92.6007 18.5295 92.9477 18.136C93.299 17.7424 93.7137 17.442 94.1919 17.2346C94.6743 17.0273 95.2054 16.9236 95.7851 16.9236C96.3691 16.9236 96.9002 17.0273 97.3784 17.2346C97.8608 17.442 98.2755 17.7424 98.6225 18.136C98.9738 18.5295 99.2446 19.0056 99.435 19.5642C99.6297 20.1186 99.727 20.7491 99.727 21.4558ZM97.8037 21.8938V21.4431C97.8037 20.9522 97.7593 20.5206 97.6704 20.1482C97.5815 19.7758 97.4503 19.4626 97.2768 19.2087C97.1033 18.9548 96.8917 18.7644 96.6421 18.6375C96.3924 18.5063 96.1068 18.4407 95.7851 18.4407C95.4635 18.4407 95.1779 18.5063 94.9282 18.6375C94.6828 18.7644 94.4733 18.9548 94.2998 19.2087C94.1305 19.4626 94.0014 19.7758 93.9126 20.1482C93.8237 20.5206 93.7793 20.9522 93.7793 21.4431V21.8938C93.7793 22.3805 93.8237 22.8121 93.9126 23.1887C94.0014 23.5611 94.1326 23.8764 94.3061 24.1345C94.4796 24.3884 94.6912 24.581 94.9409 24.7122C95.1906 24.8433 95.4762 24.9089 95.7978 24.9089C96.1194 24.9089 96.4051 24.8433 96.6548 24.7122C96.9044 24.581 97.1139 24.3884 97.2832 24.1345C97.4525 23.8764 97.5815 23.5611 97.6704 23.1887C97.7593 22.8121 97.8037 22.3805 97.8037 21.8938ZM108.54 17.0505V26.2927H106.636L102.922 20.0974V26.2927H101.018V17.0505H102.922L106.642 23.2522V17.0505H108.54ZM117.709 21.4558V21.8938C117.709 22.5963 117.613 23.2268 117.423 23.7854C117.233 24.344 116.964 24.8201 116.617 25.2136C116.27 25.6029 115.855 25.9013 115.373 26.1086C114.895 26.316 114.363 26.4197 113.779 26.4197C113.2 26.4197 112.669 26.316 112.186 26.1086C111.708 25.9013 111.293 25.6029 110.942 25.2136C110.591 24.8201 110.318 24.344 110.123 23.7854C109.933 23.2268 109.838 22.5963 109.838 21.8938V21.4558C109.838 20.7491 109.933 20.1186 110.123 19.5642C110.314 19.0056 110.582 18.5295 110.929 18.136C111.281 17.7424 111.695 17.442 112.173 17.2346C112.656 17.0273 113.187 16.9236 113.767 16.9236C114.351 16.9236 114.882 17.0273 115.36 17.2346C115.842 17.442 116.257 17.7424 116.604 18.136C116.955 18.5295 117.226 19.0056 117.417 19.5642C117.611 20.1186 117.709 20.7491 117.709 21.4558ZM115.785 21.8938V21.4431C115.785 20.9522 115.741 20.5206 115.652 20.1482C115.563 19.7758 115.432 19.4626 115.258 19.2087C115.085 18.9548 114.873 18.7644 114.624 18.6375C114.374 18.5063 114.088 18.4407 113.767 18.4407C113.445 18.4407 113.159 18.5063 112.91 18.6375C112.664 18.7644 112.455 18.9548 112.281 19.2087C112.112 19.4626 111.983 19.7758 111.894 20.1482C111.805 20.5206 111.761 20.9522 111.761 21.4431V21.8938C111.761 22.3805 111.805 22.8121 111.894 23.1887C111.983 23.5611 112.114 23.8764 112.288 24.1345C112.461 24.3884 112.673 24.581 112.923 24.7122C113.172 24.8433 113.458 24.9089 113.779 24.9089C114.101 24.9089 114.387 24.8433 114.636 24.7122C114.886 24.581 115.096 24.3884 115.265 24.1345C115.434 23.8764 115.563 23.5611 115.652 23.1887C115.741 22.8121 115.785 22.3805 115.785 21.8938ZM123.811 23.8743C123.811 23.7092 123.786 23.5611 123.735 23.4299C123.689 23.2945 123.6 23.1718 123.468 23.0618C123.337 22.9475 123.153 22.8354 122.916 22.7253C122.679 22.6153 122.372 22.5011 121.996 22.3826C121.577 22.2472 121.179 22.0948 120.802 21.9255C120.43 21.7563 120.1 21.5595 119.812 21.3352C119.529 21.1067 119.304 20.8422 119.139 20.5417C118.979 20.2413 118.898 19.8922 118.898 19.4944C118.898 19.1093 118.983 18.7602 119.152 18.447C119.321 18.1296 119.558 17.8588 119.863 17.6345C120.168 17.406 120.527 17.2304 120.942 17.1077C121.361 16.9849 121.82 16.9236 122.32 16.9236C123.001 16.9236 123.595 17.0463 124.103 17.2917C124.611 17.5372 125.005 17.8736 125.284 18.301C125.567 18.7284 125.709 19.2172 125.709 19.7673H123.818C123.818 19.4965 123.76 19.2595 123.646 19.0564C123.536 18.849 123.367 18.6861 123.138 18.5676C122.914 18.4491 122.631 18.3899 122.288 18.3899C121.958 18.3899 121.683 18.4407 121.463 18.5422C121.243 18.6396 121.078 18.7729 120.967 18.9421C120.857 19.1072 120.802 19.2934 120.802 19.5007C120.802 19.6573 120.841 19.7991 120.917 19.926C120.997 20.053 121.116 20.1715 121.272 20.2815C121.429 20.3915 121.621 20.4952 121.85 20.5925C122.078 20.6899 122.343 20.7851 122.643 20.8782C123.147 21.0305 123.589 21.2019 123.97 21.3923C124.355 21.5828 124.677 21.7965 124.935 22.0334C125.193 22.2704 125.388 22.5391 125.519 22.8396C125.65 23.1401 125.716 23.4807 125.716 23.8616C125.716 24.2636 125.637 24.6233 125.481 24.9407C125.324 25.2581 125.098 25.5268 124.801 25.7468C124.505 25.9669 124.152 26.134 123.741 26.2483C123.331 26.3625 122.872 26.4197 122.364 26.4197C121.907 26.4197 121.456 26.3604 121.012 26.2419C120.568 26.1192 120.163 25.9351 119.8 25.6897C119.44 25.4443 119.152 25.1311 118.936 24.7502C118.72 24.3694 118.613 23.9187 118.613 23.3982H120.523C120.523 23.686 120.568 23.9293 120.656 24.1282C120.745 24.3271 120.87 24.4879 121.031 24.6106C121.196 24.7333 121.391 24.8222 121.615 24.8772C121.843 24.9322 122.093 24.9597 122.364 24.9597C122.694 24.9597 122.965 24.9132 123.176 24.8201C123.392 24.727 123.551 24.5979 123.653 24.4329C123.758 24.2678 123.811 24.0816 123.811 23.8743ZM132.288 23.2268H134.186C134.148 23.8489 133.976 24.4011 133.672 24.8835C133.371 25.366 132.95 25.7426 132.408 26.0134C131.871 26.2843 131.224 26.4197 130.466 26.4197C129.874 26.4197 129.343 26.3181 128.873 26.115C128.403 25.9076 128.001 25.6114 127.667 25.2263C127.337 24.8412 127.085 24.3757 126.911 23.8298C126.738 23.2839 126.651 22.6724 126.651 21.9954V21.3542C126.651 20.6772 126.74 20.0657 126.918 19.5198C127.1 18.9696 127.358 18.502 127.692 18.1169C128.031 17.7319 128.435 17.4356 128.905 17.2283C129.374 17.0209 129.899 16.9172 130.479 16.9172C131.249 16.9172 131.899 17.0569 132.428 17.3362C132.961 17.6155 133.373 18.0006 133.665 18.4915C133.962 18.9823 134.139 19.5409 134.199 20.1672H132.294C132.273 19.7948 132.199 19.4796 132.072 19.2214C131.945 18.9591 131.753 18.7623 131.494 18.6311C131.241 18.4957 130.902 18.428 130.479 18.428C130.161 18.428 129.884 18.4872 129.647 18.6057C129.41 18.7242 129.211 18.9041 129.051 19.1453C128.89 19.3865 128.769 19.6912 128.689 20.0593C128.613 20.4233 128.575 20.8507 128.575 21.3416V21.9954C128.575 22.4736 128.61 22.8946 128.682 23.2585C128.754 23.6182 128.864 23.9229 129.012 24.1726C129.165 24.4181 129.36 24.6042 129.596 24.7312C129.838 24.8539 130.128 24.9153 130.466 24.9153C130.864 24.9153 131.192 24.8518 131.45 24.7249C131.708 24.5979 131.905 24.4096 132.04 24.1599C132.18 23.9102 132.262 23.5992 132.288 23.2268ZM142.948 21.4558V21.8938C142.948 22.5963 142.853 23.2268 142.662 23.7854C142.472 24.344 142.203 24.8201 141.856 25.2136C141.509 25.6029 141.095 25.9013 140.612 26.1086C140.134 26.316 139.603 26.4197 139.019 26.4197C138.439 26.4197 137.908 26.316 137.426 26.1086C136.947 25.9013 136.533 25.6029 136.182 25.2136C135.83 24.8201 135.557 24.344 135.363 23.7854C135.172 23.2268 135.077 22.5963 135.077 21.8938V21.4558C135.077 20.7491 135.172 20.1186 135.363 19.5642C135.553 19.0056 135.822 18.5295 136.169 18.136C136.52 17.7424 136.935 17.442 137.413 17.2346C137.895 17.0273 138.426 16.9236 139.006 16.9236C139.59 16.9236 140.121 17.0273 140.599 17.2346C141.082 17.442 141.497 17.7424 141.844 18.136C142.195 18.5295 142.466 19.0056 142.656 19.5642C142.851 20.1186 142.948 20.7491 142.948 21.4558ZM141.025 21.8938V21.4431C141.025 20.9522 140.98 20.5206 140.891 20.1482C140.803 19.7758 140.671 19.4626 140.498 19.2087C140.324 18.9548 140.113 18.7644 139.863 18.6375C139.613 18.5063 139.328 18.4407 139.006 18.4407C138.685 18.4407 138.399 18.5063 138.149 18.6375C137.904 18.7644 137.694 18.9548 137.521 19.2087C137.352 19.4626 137.223 19.7758 137.134 20.1482C137.045 20.5206 137 20.9522 137 21.4431V21.8938C137 22.3805 137.045 22.8121 137.134 23.1887C137.223 23.5611 137.354 23.8764 137.527 24.1345C137.701 24.3884 137.912 24.581 138.162 24.7122C138.412 24.8433 138.697 24.9089 139.019 24.9089C139.341 24.9089 139.626 24.8433 139.876 24.7122C140.126 24.581 140.335 24.3884 140.504 24.1345C140.674 23.8764 140.803 23.5611 140.891 23.1887C140.98 22.8121 141.025 22.3805 141.025 21.8938Z" fill="white"/>
<rect x="0.5" y="0.792725" width="164" height="41" rx="7.5" stroke="white"/>
<path d="M22.625 11.949C24.375 10.1677 26.5 9.2771 29 9.2771C31.5 9.2771 33.625 10.1677 35.375 11.949C37.125 13.699 38 15.8083 38 18.2771V28.3083C38 29.1208 37.7031 29.824 37.1094 30.4177C36.5156 31.0115 35.8125 31.3083 35 31.3083H29V29.2927H35.9844V28.3083H32V20.2927H35.9844V18.2771C35.9844 16.3396 35.2969 14.699 33.9219 13.3552C32.5781 11.9802 30.9375 11.2927 29 11.2927C27.0625 11.2927 25.4062 11.9802 24.0312 13.3552C22.6875 14.699 22.0156 16.3396 22.0156 18.2771V20.2927H26V28.3083H23C22.1875 28.3083 21.4844 28.0115 20.8906 27.4177C20.2969 26.824 20 26.1208 20 25.3083V18.2771C20 15.8083 20.875 13.699 22.625 11.949Z" fill="white"/>
</svg>
