<svg width="102" height="32" viewBox="0 0 102 32" fill="none" xmlns="http://www.w3.org/2000/svg">
<path d="M8.22654 3.10602C8.31084 2.99849 8.41575 2.90887 8.53514 2.84242C8.65453 2.77598 8.78599 2.73404 8.9218 2.71907C9.05762 2.7041 9.19505 2.7164 9.32605 2.75525C9.45704 2.79409 9.57897 2.85871 9.68466 2.9453L16.5318 8.52217V3.76505C16.5284 3.6267 16.5526 3.48906 16.6032 3.36023C16.6538 3.2314 16.7296 3.11399 16.8262 3.01492C16.9228 2.91585 17.0383 2.83711 17.1659 2.78336C17.2934 2.7296 17.4304 2.7019 17.5688 2.7019C17.7072 2.7019 17.8442 2.7296 17.9717 2.78336C18.0992 2.83711 18.2147 2.91585 18.3113 3.01492C18.408 3.11399 18.4838 3.2314 18.5343 3.36023C18.5849 3.48906 18.6092 3.6267 18.6057 3.76505V12.3498C18.6065 12.4007 18.5928 12.4507 18.5662 12.4941C18.5395 12.5374 18.5011 12.5722 18.4553 12.5945C18.4096 12.6167 18.3584 12.6254 18.3079 12.6196C18.2573 12.6138 18.2095 12.5936 18.17 12.5615L8.38532 4.5848C8.17118 4.40773 8.03472 4.15399 8.00506 3.87772C7.97539 3.60144 8.05487 3.32451 8.22654 3.10602ZM4.42536 6.06938L21.6523 19.4784C21.6922 19.5091 21.7399 19.5279 21.79 19.5327C21.8401 19.5375 21.8905 19.5282 21.9355 19.5057C21.9805 19.4832 22.0182 19.4485 22.0444 19.4055C22.0706 19.3626 22.0841 19.3131 22.0835 19.2628V5.73115C22.087 5.5928 22.0627 5.45516 22.0121 5.32633C21.9616 5.1975 21.8858 5.0801 21.7891 4.98103C21.6925 4.88195 21.577 4.80322 21.4495 4.74946C21.322 4.6957 21.185 4.66801 21.0466 4.66801C20.9082 4.66801 20.7712 4.6957 20.6437 4.74946C20.5161 4.80322 20.4006 4.88195 20.304 4.98103C20.2074 5.0801 20.1316 5.1975 20.081 5.32633C20.0304 5.45516 20.0062 5.5928 20.0096 5.73115V15.1111C20.0103 15.1505 19.9999 15.1892 19.9795 15.2228C19.9592 15.2565 19.9297 15.2837 19.8945 15.3013C19.8594 15.3189 19.82 15.3262 19.7808 15.3224C19.7417 15.3186 19.7044 15.3037 19.6733 15.2796L5.6879 4.39826C5.58024 4.31414 5.45687 4.25235 5.32503 4.21651C5.19319 4.18067 5.05552 4.1715 4.92009 4.18953C4.78466 4.20757 4.65419 4.25244 4.53632 4.32153C4.41845 4.39062 4.31555 4.48254 4.23365 4.5919C4.06593 4.81428 3.99206 5.09355 4.0279 5.36977C4.06374 5.646 4.20644 5.89717 4.42536 6.06938V6.06938ZM21.1999 25.5148L4.56865 12.5241C4.52878 12.4934 4.48108 12.4746 4.43101 12.4698C4.38094 12.465 4.33052 12.4743 4.28553 12.4968C4.24054 12.5193 4.20279 12.554 4.17661 12.597C4.15043 12.6399 4.13686 12.6894 4.13748 12.7397V25.846C4.13402 25.9843 4.15829 26.122 4.20885 26.2508C4.25941 26.3796 4.33524 26.497 4.43187 26.5961C4.5285 26.6952 4.64398 26.7739 4.77151 26.8277C4.89904 26.8814 5.03603 26.9091 5.17443 26.9091C5.31282 26.9091 5.44982 26.8814 5.57734 26.8277C5.70487 26.7739 5.82035 26.6952 5.91698 26.5961C6.01361 26.497 6.08944 26.3796 6.14 26.2508C6.19056 26.122 6.21483 25.9843 6.21138 25.846V16.8939C6.21066 16.8546 6.22109 16.8159 6.24145 16.7822C6.26182 16.7486 6.29128 16.7214 6.32645 16.7038C6.36162 16.6861 6.40105 16.6788 6.44019 16.6827C6.47934 16.6865 6.5166 16.7013 6.54767 16.7255L19.936 27.1853C20.0437 27.2694 20.1671 27.3312 20.2989 27.3671C20.4307 27.4029 20.5684 27.4121 20.7038 27.3941C20.8393 27.376 20.9697 27.3311 21.0876 27.2621C21.2055 27.193 21.3084 27.101 21.3903 26.9917C21.558 26.7695 21.6319 26.4905 21.5963 26.2144C21.5607 25.9384 21.4184 25.6872 21.1999 25.5148ZM24.3853 6.88332C24.248 6.88442 24.1124 6.91254 23.986 6.96607C23.8596 7.0196 23.745 7.0975 23.6488 7.19532C23.5525 7.29314 23.4765 7.40896 23.425 7.53617C23.3735 7.66339 23.3475 7.7995 23.3486 7.93673V22.3546L2.3818 6.30304C2.2127 6.17513 2.01107 6.09726 1.79989 6.07833C1.58871 6.05939 1.37645 6.10013 1.18729 6.19593C0.998127 6.29172 0.839668 6.4387 0.729956 6.62014C0.620244 6.80158 0.563688 7.01018 0.566729 7.22219V23.368C0.563277 23.5064 0.587546 23.644 0.638106 23.7728C0.688665 23.9017 0.764493 24.0191 0.861124 24.1181C0.957755 24.2172 1.07324 24.2959 1.20076 24.3497C1.32829 24.4035 1.46528 24.4312 1.60368 24.4312C1.74207 24.4312 1.87907 24.4035 2.00659 24.3497C2.13412 24.2959 2.2496 24.2172 2.34623 24.1181C2.44286 24.0191 2.51869 23.9017 2.56925 23.7728C2.61981 23.644 2.64408 23.5064 2.64063 23.368V9.13924L23.6075 25.1908C23.7765 25.3188 23.9781 25.3967 24.1893 25.4157C24.4005 25.4347 24.6127 25.3939 24.8018 25.2981C24.991 25.2023 25.1494 25.0553 25.259 24.8738C25.3687 24.6923 25.4251 24.4837 25.4219 24.2717V7.93673C25.423 7.7995 25.3971 7.66339 25.3456 7.53617C25.2941 7.40896 25.218 7.29314 25.1218 7.19532C25.0255 7.0975 24.9109 7.0196 24.7845 6.96607C24.6582 6.91254 24.5225 6.88442 24.3853 6.88332ZM17.2986 27.004L8.05162 19.4371C8.01201 19.4052 7.96416 19.3853 7.91366 19.3797C7.86316 19.374 7.81209 19.3828 7.76641 19.4051C7.72072 19.4273 7.68232 19.4621 7.65567 19.5054C7.62903 19.5487 7.61524 19.5986 7.61592 19.6495V27.7391C7.61592 28.0141 7.72514 28.2777 7.91954 28.4721C8.11395 28.6666 8.37762 28.7758 8.65255 28.7758C8.92748 28.7758 9.19115 28.6666 9.38556 28.4721C9.57996 28.2777 9.68918 28.0141 9.68918 27.7391V23.479L15.998 28.6428C16.1037 28.7295 16.2256 28.7942 16.3566 28.8331C16.4876 28.872 16.6251 28.8843 16.7609 28.8693C16.8967 28.8543 17.0282 28.8124 17.1476 28.7459C17.267 28.6794 17.3719 28.5897 17.4561 28.4821C17.6279 28.2639 17.7076 27.9871 17.6782 27.711C17.6487 27.4348 17.5125 27.1811 17.2986 27.004V27.004Z" fill="url(#paint0_linear_4730_265)"/>
<path d="M44.8314 8.79393C44.2766 8.08897 43.5661 7.52206 42.7556 7.13765C41.8971 6.74246 40.9612 6.54398 40.0162 6.55673C39.4479 6.55892 38.8816 6.62386 38.3276 6.75037C37.7501 6.88146 37.1877 7.07203 36.6494 7.31903C36.0859 7.57931 35.5518 7.89913 35.0564 8.27304C34.6448 8.58334 34.2636 8.93195 33.9178 9.31418C33.4953 8.66281 32.9072 8.13551 32.2137 7.78635C32.1278 7.74486 32.0327 7.72584 31.9374 7.73109C31.8421 7.73635 31.7497 7.76569 31.6688 7.81638C31.588 7.86707 31.5213 7.93744 31.475 8.02092C31.4287 8.1044 31.4044 8.19825 31.4043 8.29369V24.6738C31.4043 24.8108 31.4587 24.9421 31.5555 25.039C31.6524 25.1358 31.7837 25.1902 31.9207 25.1902H33.6563C33.7933 25.1902 33.9246 25.1358 34.0215 25.039C34.1183 24.9421 34.1727 24.8108 34.1727 24.6738V13.0715C34.2091 12.5746 34.373 12.0956 34.6484 11.6805C34.9604 11.2047 35.362 10.7943 35.8309 10.4722C36.3729 10.0999 36.9708 9.8166 37.6021 9.63305C38.3197 9.42339 39.064 9.31967 39.8116 9.32516C40.3858 9.27846 40.9625 9.37785 41.488 9.61406C42.0135 9.85028 42.4706 10.2156 42.8169 10.6761C43.5544 11.8826 43.9032 13.2867 43.8161 14.6981V24.6738C43.8161 24.8108 43.8705 24.9421 43.9673 25.039C44.0642 25.1358 44.1955 25.1902 44.3324 25.1902H46.0681C46.2051 25.1902 46.3364 25.1358 46.4333 25.039C46.5301 24.9421 46.5845 24.8108 46.5845 24.6738V14.7006C46.5973 13.5741 46.4451 12.4518 46.1327 11.3694C45.8651 10.4366 45.4235 9.56276 44.8314 8.79393V8.79393Z" fill="#333333"/>
<path d="M63.6989 22.5741C63.1141 21.9144 58.5229 16.7797 57.5443 15.685C58.3835 14.7652 61.8045 11.0124 62.1511 10.6296C62.9743 9.71736 63.8323 8.76142 64.7252 7.7618C64.7957 7.68273 64.8419 7.58499 64.8582 7.48032C64.8744 7.37565 64.8601 7.26851 64.817 7.17177C64.7738 7.07503 64.7036 6.99281 64.6149 6.935C64.5261 6.87719 64.4226 6.84624 64.3166 6.84587H63.4291C62.855 6.82961 62.2874 6.96997 61.787 7.25187C61.3349 7.52759 60.93 7.8741 60.5877 8.27817L54.102 15.3209C54 15.4312 53.9434 15.576 53.9434 15.7263C53.9434 15.8765 54 16.0213 54.102 16.1316L61.0454 23.774C61.3999 24.1681 61.81 24.5085 62.2627 24.7842C62.7575 25.0647 63.3194 25.2051 63.888 25.1902H64.7091C64.8118 25.1902 64.9125 25.1614 64.9997 25.1071C65.0869 25.0527 65.1571 24.975 65.2023 24.8828C65.2476 24.7905 65.266 24.6875 65.2556 24.5853C65.2452 24.4831 65.2064 24.3858 65.1435 24.3046C64.7142 23.7553 64.2314 23.1744 63.6989 22.5741Z" fill="#333333"/>
<path d="M50.8211 0.376343H52.5567C52.6937 0.376343 52.825 0.430747 52.9219 0.527586C53.0187 0.624426 53.0731 0.755768 53.0731 0.89272V24.6738C53.0731 24.8108 53.0187 24.9421 52.9219 25.039C52.825 25.1358 52.6937 25.1902 52.5567 25.1902H50.8211C50.6841 25.1902 50.5528 25.1358 50.4559 25.039C50.3591 24.9421 50.3047 24.8108 50.3047 24.6738V0.89272C50.3047 0.755768 50.3591 0.624426 50.4559 0.527586C50.5528 0.430747 50.6841 0.376343 50.8211 0.376343V0.376343Z" fill="#333333"/>
<path d="M101.355 6.91429C101.311 6.84911 101.252 6.7962 101.182 6.7606C101.112 6.725 101.034 6.70791 100.956 6.71097H100.29C99.8225 6.71014 99.3643 6.84464 98.9711 7.09825C98.5711 7.34805 98.2561 7.71303 98.0674 8.14521L92.5041 20.839L92.315 20.4021L92.3027 20.3685C92.295 20.3453 92.2866 20.322 92.2737 20.2891L86.9737 8.13488C86.8132 7.68899 86.4984 7.31531 86.0862 7.08147C85.6825 6.83884 85.2204 6.71055 84.7494 6.71032H84.0885C84.0113 6.70673 83.9345 6.72322 83.8656 6.75818C83.7967 6.79314 83.738 6.84537 83.6954 6.90977C83.6429 7.00706 83.616 7.11611 83.6172 7.22665C83.6185 7.33719 83.6478 7.4456 83.7025 7.54169L91.0234 24.362L88.1711 30.8167C88.1324 30.9042 88.1161 30.9999 88.1238 31.0952C88.1315 31.1906 88.1629 31.2825 88.2151 31.3626C88.2672 31.4427 88.3386 31.5086 88.4227 31.5541C88.5067 31.5997 88.6009 31.6236 88.6965 31.6236H89.2593C89.7351 31.6265 90.2012 31.4891 90.5993 31.2286C91.0019 30.9687 91.3069 30.5829 91.4668 30.1313L101.353 7.53975C101.405 7.44392 101.433 7.33651 101.433 7.22727C101.434 7.11803 101.407 7.01044 101.355 6.91429V6.91429Z" fill="#333333"/>
<path d="M82.0216 10.8271C80.9096 9.1034 79.2586 7.79596 77.3258 7.10857C75.1194 6.33217 72.7026 6.40698 70.5484 7.31835C68.282 8.28037 66.4738 10.0793 65.5002 12.3408C64.9973 13.5018 64.7412 14.7547 64.7482 16.0199C64.7469 16.867 64.8616 17.7103 65.089 18.5263C65.3095 19.3178 65.6322 20.0773 66.0488 20.7855C66.4617 21.4818 66.9605 22.1235 67.5334 22.6954C68.1044 23.2672 68.7468 23.7629 69.4446 24.1703C70.1516 24.5808 70.9076 24.9003 71.6948 25.1211C72.5142 25.3498 73.3613 25.4645 74.2121 25.4619C74.8658 25.4615 75.5171 25.382 76.1517 25.225C76.7827 25.0679 77.3976 24.8518 77.9881 24.5795C79.0996 24.0684 80.1161 23.3719 80.9941 22.5198C81.0338 22.4808 81.065 22.4338 81.0857 22.382C81.1063 22.3303 81.116 22.2747 81.1141 22.219C81.1121 22.1633 81.0986 22.1086 81.0744 22.0584C81.0502 22.0081 81.0158 21.9635 80.9734 21.9273L80.6681 21.6691C80.5414 21.5597 80.4053 21.4616 80.2614 21.3761C80.1142 21.2897 79.9565 21.2227 79.7922 21.1766C79.3988 21.0813 78.9881 21.0829 78.5955 21.1811C78.3729 21.2305 78.1604 21.3178 77.9674 21.4393C77.6825 21.6207 77.3863 21.7836 77.0806 21.9273C76.7608 22.0793 76.4328 22.2133 76.0982 22.3288C75.7745 22.4403 75.4437 22.5298 75.108 22.5966C74.8131 22.6571 74.5131 22.6891 74.2121 22.6922C73.3431 22.6987 72.481 22.5369 71.6734 22.2158C70.1277 21.6084 68.8733 20.432 68.1679 18.9284C67.844 18.2467 67.6442 17.5128 67.5779 16.7609H81.0534C81.3704 16.7631 81.6841 16.6971 81.9732 16.5673C82.2538 16.4406 82.5057 16.2581 82.7136 16.0309C82.918 15.8065 83.0824 15.5487 83.1996 15.2686C83.3236 14.9718 83.3864 14.653 83.3842 14.3314C83.3802 14.1046 83.3483 13.8791 83.2894 13.6601C83.0166 12.6556 82.5888 11.6998 82.0216 10.8271V10.8271ZM80.4983 13.9751H67.84C67.9643 13.5683 68.1295 13.1751 68.3331 12.8016C68.7062 12.1146 69.1984 11.4994 69.7867 10.9846C71.0169 9.9158 72.5948 9.33261 74.2243 9.34448C74.9411 9.34423 75.6535 9.45617 76.3357 9.67625C77.0119 9.89399 77.6469 10.2237 78.214 10.6516C79.3141 11.4844 80.1162 12.65 80.5009 13.9751H80.4983Z" fill="#333333"/>
<defs>
<linearGradient id="paint0_linear_4730_265" x1="27.2613" y1="2.44017" x2="-0.869646" y2="26.0712" gradientUnits="userSpaceOnUse">
<stop stop-color="#06BDE8"/>
<stop offset="1" stop-color="#5338B6"/>
</linearGradient>
</defs>
</svg>
