<svg width="1110" height="65" viewBox="0 0 1110 65" fill="none" xmlns="http://www.w3.org/2000/svg">
<path d="M49.2578 38.0978V25.0709C49.2578 23.2074 50.7756 21.6897 52.6391 21.6897H64.0309C65.8944 21.6897 67.4122 23.2074 67.4122 25.0709V38.0978H49.2578ZM52.6391 23.3422C51.6839 23.3422 50.9103 24.1158 50.9103 25.0709V36.4394H65.7597V25.0709C65.7597 24.1158 64.9861 23.3422 64.0309 23.3422H52.6391Z" fill="#0597BA"/>
<path d="M46.7797 43.6354C44.8224 43.6354 43.2285 42.0415 43.2285 40.0843C43.2285 38.127 44.8224 36.5331 46.7797 36.5331C48.7369 36.5331 50.3309 38.127 50.3309 40.0843C50.3309 42.0415 48.7428 43.6354 46.7797 43.6354ZM46.7797 38.1915C45.7366 38.1915 44.8869 39.0412 44.8869 40.0843C44.8869 41.1273 45.7366 41.977 46.7797 41.977C47.8228 41.977 48.6783 41.1273 48.6783 40.0843C48.6783 39.0412 47.8286 38.1915 46.7797 38.1915Z" fill="#0597BA"/>
<path d="M65.4731 43.6354C63.5158 43.6354 61.9219 42.0415 61.9219 40.0843C61.9219 38.127 63.5158 36.5331 65.4731 36.5331C67.4303 36.5331 69.0242 38.127 69.0242 40.0843C69.0242 42.0415 67.4303 43.6354 65.4731 43.6354ZM65.4731 38.1915C64.43 38.1915 63.5744 39.0412 63.5744 40.0843C63.5744 41.1273 64.4241 41.977 65.4731 41.977C66.5161 41.977 67.3658 41.1273 67.3658 40.0843C67.3658 39.0412 66.5161 38.1915 65.4731 38.1915Z" fill="#0597BA"/>
<path d="M40.6387 38.0977V32.1615C40.6387 30.298 42.1564 28.7803 44.0199 28.7803H50.9054V30.4328H44.0199C43.0647 30.4328 42.2912 31.2063 42.2912 32.1615V36.4393H69.7044V32.1615C69.7044 31.2063 68.9309 30.4328 67.9757 30.4328H65.7606V28.7803H67.9816C69.8451 28.7803 71.3628 30.298 71.3628 32.1615V38.0919H40.6387V38.0977Z" fill="#0597BA"/>
<path d="M92.172 27.719C92.7727 27.719 93.3847 27.7247 94.008 27.736C94.6427 27.736 95.2603 27.753 95.861 27.787C96.473 27.8097 97.0397 27.8493 97.561 27.906L97.425 29.776H93.175C92.869 29.776 92.6367 29.8497 92.478 29.997C92.3193 30.1443 92.24 30.3597 92.24 30.643V39.5H89.639V30.116C89.639 29.3907 89.8713 28.8127 90.336 28.382C90.8007 27.94 91.4127 27.719 92.172 27.719ZM89.945 32.683H96.796V34.519H89.945V32.683ZM100.722 31.102L101.028 32.768L101.266 32.989V39.5H98.7505V31.102H100.722ZM104.819 30.881L104.581 33.21H103.884C103.488 33.21 103.074 33.2667 102.643 33.38C102.213 33.4933 101.669 33.6633 101.011 33.89L100.841 32.479C101.431 31.9577 102.026 31.561 102.626 31.289C103.227 31.017 103.811 30.881 104.377 30.881H104.819ZM109.851 30.881C111.267 30.881 112.282 31.1247 112.894 31.612C113.517 32.088 113.829 32.802 113.829 33.754C113.84 34.5247 113.647 35.1027 113.251 35.488C112.854 35.862 112.168 36.049 111.194 36.049H106.502V34.638H110.497C110.882 34.638 111.126 34.5587 111.228 34.4C111.341 34.23 111.398 33.9977 111.398 33.703C111.386 33.3063 111.267 33.0343 111.041 32.887C110.825 32.7283 110.457 32.649 109.936 32.649C109.471 32.649 109.108 32.7113 108.848 32.836C108.587 32.9607 108.406 33.1987 108.304 33.55C108.202 33.9013 108.151 34.4113 108.151 35.08C108.151 35.7827 108.213 36.3267 108.338 36.712C108.462 37.086 108.672 37.3467 108.967 37.494C109.273 37.6413 109.692 37.715 110.225 37.715C110.61 37.715 111.086 37.7037 111.653 37.681C112.231 37.647 112.809 37.596 113.387 37.528L113.625 39.075C113.296 39.2337 112.922 39.3583 112.503 39.449C112.083 39.5397 111.653 39.602 111.211 39.636C110.769 39.6813 110.344 39.704 109.936 39.704C108.87 39.704 108.009 39.551 107.352 39.245C106.706 38.9277 106.235 38.446 105.941 37.8C105.657 37.154 105.516 36.3267 105.516 35.318C105.516 34.2187 105.663 33.346 105.958 32.7C106.252 32.054 106.717 31.5893 107.352 31.306C107.986 31.0227 108.819 30.881 109.851 30.881ZM118.749 28.773V36.814C118.749 37.12 118.817 37.341 118.953 37.477C119.101 37.6017 119.339 37.664 119.667 37.664H120.755L121.027 39.364C120.823 39.432 120.574 39.4887 120.279 39.534C119.985 39.5907 119.69 39.6303 119.395 39.653C119.101 39.687 118.851 39.704 118.647 39.704C117.888 39.704 117.293 39.5 116.862 39.092C116.443 38.684 116.233 38.1117 116.233 37.375L116.216 28.773H118.749ZM121.095 31.102V32.751H114.754V31.187L116.386 31.102H121.095ZM126.419 30.881C127.836 30.881 128.85 31.1247 129.462 31.612C130.085 32.088 130.397 32.802 130.397 33.754C130.408 34.5247 130.216 35.1027 129.819 35.488C129.422 35.862 128.737 36.049 127.762 36.049H123.07V34.638H127.065C127.45 34.638 127.694 34.5587 127.796 34.4C127.909 34.23 127.966 33.9977 127.966 33.703C127.955 33.3063 127.836 33.0343 127.609 32.887C127.394 32.7283 127.025 32.649 126.504 32.649C126.039 32.649 125.677 32.7113 125.416 32.836C125.155 32.9607 124.974 33.1987 124.872 33.55C124.77 33.9013 124.719 34.4113 124.719 35.08C124.719 35.7827 124.781 36.3267 124.906 36.712C125.031 37.086 125.24 37.3467 125.535 37.494C125.841 37.6413 126.26 37.715 126.793 37.715C127.178 37.715 127.654 37.7037 128.221 37.681C128.799 37.647 129.377 37.596 129.955 37.528L130.193 39.075C129.864 39.2337 129.49 39.3583 129.071 39.449C128.652 39.5397 128.221 39.602 127.779 39.636C127.337 39.6813 126.912 39.704 126.504 39.704C125.439 39.704 124.577 39.551 123.92 39.245C123.274 38.9277 122.804 38.446 122.509 37.8C122.226 37.154 122.084 36.3267 122.084 35.318C122.084 34.2187 122.231 33.346 122.526 32.7C122.821 32.054 123.285 31.5893 123.92 31.306C124.555 31.0227 125.388 30.881 126.419 30.881ZM139.446 30.881C140.42 30.881 141.191 30.9717 141.758 31.153C142.336 31.3343 142.749 31.6177 142.999 32.003C143.259 32.3883 143.39 32.904 143.39 33.55C143.39 34.1733 143.265 34.6833 143.016 35.08C142.766 35.4653 142.347 35.7487 141.758 35.93C141.18 36.1113 140.403 36.202 139.429 36.202C138.454 36.202 137.672 36.1113 137.083 35.93C136.505 35.7487 136.085 35.4653 135.825 35.08C135.575 34.6947 135.451 34.1847 135.451 33.55C135.451 32.9153 135.575 32.4053 135.825 32.02C136.085 31.6233 136.51 31.3343 137.1 31.153C137.689 30.9717 138.471 30.881 139.446 30.881ZM139.429 32.428C138.805 32.428 138.375 32.513 138.137 32.683C137.899 32.8417 137.78 33.1307 137.78 33.55C137.78 33.9693 137.899 34.264 138.137 34.434C138.375 34.604 138.805 34.689 139.429 34.689C140.052 34.689 140.477 34.604 140.704 34.434C140.93 34.264 141.044 33.9693 141.044 33.55C141.044 33.1307 140.93 32.8417 140.704 32.683C140.477 32.513 140.052 32.428 139.429 32.428ZM144.359 31.102L144.223 32.173L141.979 32.462L141.367 31.102H144.359ZM136.896 35.692L138.154 35.913C137.995 36.0037 137.882 36.1453 137.814 36.338C137.757 36.5307 137.774 36.712 137.865 36.882C137.955 37.052 138.154 37.154 138.46 37.188L141.554 37.545C142.438 37.6357 143.061 37.885 143.424 38.293C143.786 38.6897 143.968 39.2733 143.968 40.044C143.968 40.7693 143.82 41.3247 143.526 41.71C143.231 42.1067 142.761 42.3787 142.115 42.526C141.469 42.6733 140.607 42.747 139.531 42.747C138.647 42.747 137.916 42.7017 137.338 42.611C136.771 42.5317 136.318 42.3957 135.978 42.203C135.649 42.0103 135.417 41.7553 135.281 41.438C135.156 41.132 135.094 40.7467 135.094 40.282C135.094 39.9307 135.156 39.6303 135.281 39.381C135.405 39.1203 135.615 38.888 135.91 38.684C136.216 38.48 136.641 38.293 137.185 38.123L138.426 37.681L139.327 38.038L138.647 38.48C138.363 38.684 138.131 38.8597 137.95 39.007C137.78 39.143 137.655 39.279 137.576 39.415C137.508 39.551 137.474 39.7323 137.474 39.959C137.474 40.2197 137.53 40.418 137.644 40.554C137.757 40.7013 137.961 40.7977 138.256 40.843C138.562 40.8997 138.975 40.928 139.497 40.928C140.041 40.928 140.466 40.8997 140.772 40.843C141.078 40.7977 141.287 40.707 141.401 40.571C141.525 40.435 141.588 40.2423 141.588 39.993C141.588 39.7777 141.542 39.619 141.452 39.517C141.372 39.415 141.231 39.3413 141.027 39.296C140.834 39.2393 140.562 39.1883 140.211 39.143L137.576 38.854C137.134 38.8087 136.788 38.6897 136.539 38.497C136.289 38.3043 136.114 38.072 136.012 37.8C135.921 37.5167 135.898 37.2333 135.944 36.95C135.989 36.6667 136.091 36.4117 136.25 36.185C136.42 35.9583 136.635 35.794 136.896 35.692ZM147.555 31.102L147.861 32.768L148.099 32.989V39.5H145.583V31.102H147.555ZM151.652 30.881L151.414 33.21H150.717C150.321 33.21 149.907 33.2667 149.476 33.38C149.046 33.4933 148.502 33.6633 147.844 33.89L147.674 32.479C148.264 31.9577 148.859 31.561 149.459 31.289C150.06 31.017 150.644 30.881 151.21 30.881H151.652ZM157.226 30.881C157.928 30.881 158.523 30.9773 159.011 31.17C159.498 31.3513 159.866 31.6687 160.116 32.122C160.376 32.564 160.507 33.176 160.507 33.958V39.5H158.501L158.144 37.681L157.974 37.426V33.941C157.974 33.5443 157.877 33.2553 157.685 33.074C157.503 32.8927 157.152 32.802 156.631 32.802C156.2 32.802 155.662 32.819 155.016 32.853C154.37 32.8757 153.707 32.9097 153.027 32.955L152.789 31.289C153.197 31.2097 153.667 31.1417 154.2 31.085C154.732 31.0283 155.265 30.983 155.798 30.949C156.33 30.9037 156.806 30.881 157.226 30.881ZM159.47 34.332L159.453 35.743L155.713 35.76C155.407 35.76 155.186 35.8337 155.05 35.981C154.925 36.1283 154.863 36.3267 154.863 36.576V36.984C154.863 37.2673 154.942 37.4883 155.101 37.647C155.259 37.7943 155.514 37.868 155.866 37.868C156.16 37.868 156.478 37.8057 156.818 37.681C157.169 37.5563 157.515 37.3807 157.855 37.154C158.195 36.9273 158.495 36.661 158.756 36.355V37.443C158.654 37.613 158.501 37.8283 158.297 38.089C158.104 38.3383 157.855 38.5877 157.549 38.837C157.243 39.075 156.886 39.279 156.478 39.449C156.07 39.619 155.605 39.704 155.084 39.704C154.574 39.704 154.115 39.6133 153.707 39.432C153.299 39.2507 152.976 38.9843 152.738 38.633C152.5 38.2817 152.381 37.8453 152.381 37.324V36.457C152.381 35.7883 152.607 35.267 153.061 34.893C153.514 34.519 154.137 34.332 154.931 34.332H159.47ZM158.637 26.512L159.725 28.212L155.934 30.099L155.186 29.028L158.637 26.512ZM165.765 28.773V36.814C165.765 37.12 165.833 37.341 165.969 37.477C166.116 37.6017 166.354 37.664 166.683 37.664H167.771L168.043 39.364C167.839 39.432 167.59 39.4887 167.295 39.534C167 39.5907 166.706 39.6303 166.411 39.653C166.116 39.687 165.867 39.704 165.663 39.704C164.904 39.704 164.309 39.5 163.878 39.092C163.459 38.684 163.249 38.1117 163.249 37.375L163.232 28.773H165.765ZM168.111 31.102V32.751H161.77V31.187L163.402 31.102H168.111ZM172.024 31.102V39.5H169.525V31.102H172.024ZM171.327 27.396C171.825 27.396 172.075 27.651 172.075 28.161V29.062C172.075 29.572 171.825 29.827 171.327 29.827H170.239C169.74 29.827 169.491 29.572 169.491 29.062V28.161C169.491 27.651 169.74 27.396 170.239 27.396H171.327ZM177.351 30.881C177.759 30.881 178.201 30.898 178.677 30.932C179.153 30.9547 179.617 30.9887 180.071 31.034C180.524 31.0793 180.926 31.136 181.278 31.204L181.108 32.768C180.564 32.7567 180.014 32.751 179.459 32.751C178.915 32.7397 178.382 32.734 177.861 32.734C177.419 32.7227 177.079 32.7283 176.841 32.751C176.603 32.7737 176.433 32.8303 176.331 32.921C176.24 33.0003 176.195 33.1477 176.195 33.363C176.195 33.6123 176.28 33.7823 176.45 33.873C176.62 33.9523 176.903 34.043 177.3 34.145L179.493 34.672C180.195 34.8533 180.717 35.1253 181.057 35.488C181.397 35.8393 181.567 36.372 181.567 37.086C181.567 37.7887 181.436 38.327 181.176 38.701C180.915 39.075 180.501 39.3357 179.935 39.483C179.368 39.619 178.637 39.687 177.742 39.687C177.39 39.687 176.869 39.67 176.178 39.636C175.486 39.602 174.727 39.517 173.9 39.381L174.07 37.817C174.274 37.8283 174.534 37.8397 174.852 37.851C175.169 37.851 175.515 37.851 175.889 37.851C176.263 37.851 176.637 37.851 177.011 37.851C177.589 37.851 178.031 37.8397 178.337 37.817C178.643 37.783 178.852 37.715 178.966 37.613C179.079 37.511 179.136 37.358 179.136 37.154C179.136 36.9047 179.039 36.7347 178.847 36.644C178.654 36.5533 178.348 36.457 177.929 36.355L175.804 35.828C175.271 35.6807 174.857 35.4937 174.563 35.267C174.268 35.0403 174.058 34.7627 173.934 34.434C173.82 34.1053 173.764 33.7143 173.764 33.261C173.764 32.683 173.877 32.224 174.104 31.884C174.342 31.5327 174.721 31.2777 175.243 31.119C175.775 30.9603 176.478 30.881 177.351 30.881Z" fill="#0597BA"/>
<line x1="222.5" y1="6.5" x2="222.5" y2="58.5" stroke="#0597BA"/>
<path fill-rule="evenodd" clip-rule="evenodd" d="M243.121 24.819C242.65 24.819 242.267 25.2011 242.267 25.6724V27.3793H266.164V25.6724C266.164 25.2011 265.782 24.819 265.311 24.819H243.121ZM242.267 39.3276V30.7931H266.164V39.3276C266.164 39.7989 265.782 40.181 265.311 40.181H243.121C242.65 40.181 242.267 39.7989 242.267 39.3276ZM240.561 25.6724C240.561 24.2584 241.707 23.1121 243.121 23.1121H265.311C266.725 23.1121 267.871 24.2584 267.871 25.6724V39.3276C267.871 40.7416 266.725 41.8879 265.311 41.8879H243.121C241.707 41.8879 240.561 40.7416 240.561 39.3276V25.6724ZM258.983 35.3448C258.707 35.3448 258.483 35.5687 258.483 35.8448V38.2586C258.483 38.5348 258.707 38.7586 258.983 38.7586H264.284C264.56 38.7586 264.784 38.5348 264.784 38.2586V35.8448C264.784 35.5687 264.56 35.3448 264.284 35.3448H258.983Z" fill="#0597BA"/>
<path d="M293.783 27.77C293.998 27.77 294.185 27.8323 294.344 27.957C294.514 28.0817 294.627 28.246 294.684 28.45L298.084 39.5H295.432L293.035 30.881C292.99 30.6883 292.944 30.4957 292.899 30.303C292.854 30.099 292.814 29.9063 292.78 29.725H292.321C292.287 29.9063 292.247 30.099 292.202 30.303C292.168 30.4957 292.123 30.6883 292.066 30.881L289.669 39.5H287L290.417 28.45C290.474 28.246 290.581 28.0817 290.74 27.957C290.91 27.8323 291.103 27.77 291.318 27.77H293.783ZM295.585 34.451V36.406H289.499V34.451H295.585ZM302.175 28.773V36.814C302.175 37.12 302.243 37.341 302.379 37.477C302.526 37.6017 302.764 37.664 303.093 37.664H304.181L304.453 39.364C304.249 39.432 304 39.4887 303.705 39.534C303.41 39.5907 303.116 39.6303 302.821 39.653C302.526 39.687 302.277 39.704 302.073 39.704C301.314 39.704 300.719 39.5 300.288 39.092C299.869 38.684 299.659 38.1117 299.659 37.375L299.642 28.773H302.175ZM304.521 31.102V32.751H298.18V31.187L299.812 31.102H304.521ZM309.845 30.881C311.261 30.881 312.276 31.1247 312.888 31.612C313.511 32.088 313.823 32.802 313.823 33.754C313.834 34.5247 313.641 35.1027 313.245 35.488C312.848 35.862 312.162 36.049 311.188 36.049H306.496V34.638H310.491C310.876 34.638 311.12 34.5587 311.222 34.4C311.335 34.23 311.392 33.9977 311.392 33.703C311.38 33.3063 311.261 33.0343 311.035 32.887C310.819 32.7283 310.451 32.649 309.93 32.649C309.465 32.649 309.102 32.7113 308.842 32.836C308.581 32.9607 308.4 33.1987 308.298 33.55C308.196 33.9013 308.145 34.4113 308.145 35.08C308.145 35.7827 308.207 36.3267 308.332 36.712C308.456 37.086 308.666 37.3467 308.961 37.494C309.267 37.6413 309.686 37.715 310.219 37.715C310.604 37.715 311.08 37.7037 311.647 37.681C312.225 37.647 312.803 37.596 313.381 37.528L313.619 39.075C313.29 39.2337 312.916 39.3583 312.497 39.449C312.077 39.5397 311.647 39.602 311.205 39.636C310.763 39.6813 310.338 39.704 309.93 39.704C308.864 39.704 308.003 39.551 307.346 39.245C306.7 38.9277 306.229 38.446 305.935 37.8C305.651 37.154 305.51 36.3267 305.51 35.318C305.51 34.2187 305.657 33.346 305.952 32.7C306.246 32.054 306.711 31.5893 307.346 31.306C307.98 31.0227 308.813 30.881 309.845 30.881ZM311.868 26.58L312.956 28.28L309.165 30.167L308.417 29.096L311.868 26.58ZM323.891 27.77V39.5H321.307V31.187C321.307 30.9717 321.313 30.762 321.324 30.558C321.336 30.3427 321.364 30.1273 321.409 29.912L318.621 30.626L318.315 28.943L321.307 27.77H323.891ZM330.804 27.532C331.926 27.532 332.816 27.7303 333.473 28.127C334.142 28.5237 334.618 29.1697 334.901 30.065C335.196 30.949 335.343 32.139 335.343 33.635C335.343 35.131 335.196 36.3267 334.901 37.222C334.618 38.106 334.142 38.7463 333.473 39.143C332.816 39.5397 331.926 39.738 330.804 39.738C329.682 39.738 328.787 39.5397 328.118 39.143C327.461 38.7463 326.991 38.106 326.707 37.222C326.424 36.3267 326.282 35.131 326.282 33.635C326.282 32.139 326.424 30.949 326.707 30.065C326.991 29.1697 327.461 28.5237 328.118 28.127C328.787 27.7303 329.682 27.532 330.804 27.532ZM330.787 29.572C330.413 29.572 330.102 29.6343 329.852 29.759C329.603 29.8837 329.405 30.0933 329.257 30.388C329.11 30.6827 329.002 31.0963 328.934 31.629C328.878 32.1503 328.849 32.819 328.849 33.635C328.849 34.4397 328.878 35.1083 328.934 35.641C329.002 36.1737 329.11 36.5873 329.257 36.882C329.405 37.1767 329.603 37.3863 329.852 37.511C330.102 37.6357 330.413 37.698 330.787 37.698C331.173 37.698 331.49 37.6357 331.739 37.511C332 37.3863 332.204 37.1767 332.351 36.882C332.51 36.5873 332.618 36.1737 332.674 35.641C332.742 35.1083 332.776 34.4397 332.776 33.635C332.776 32.819 332.742 32.1503 332.674 31.629C332.618 31.0963 332.51 30.6827 332.351 30.388C332.204 30.0933 332 29.8837 331.739 29.759C331.49 29.6343 331.173 29.572 330.787 29.572ZM345.456 31.102L343.025 35.199L345.643 39.5H343.093L340.611 35.199L342.906 31.102H345.456ZM339.081 31.102L341.376 35.199L338.911 39.5H336.344L338.962 35.199L336.531 31.102H339.081ZM342.328 34.383V35.947H339.676V34.383H342.328ZM353.704 30.881C354.112 30.881 354.554 30.898 355.03 30.932C355.506 30.9547 355.971 30.9887 356.424 31.034C356.878 31.0793 357.28 31.136 357.631 31.204L357.461 32.768C356.917 32.7567 356.368 32.751 355.812 32.751C355.268 32.7397 354.736 32.734 354.214 32.734C353.772 32.7227 353.432 32.7283 353.194 32.751C352.956 32.7737 352.786 32.8303 352.684 32.921C352.594 33.0003 352.548 33.1477 352.548 33.363C352.548 33.6123 352.633 33.7823 352.803 33.873C352.973 33.9523 353.257 34.043 353.653 34.145L355.846 34.672C356.549 34.8533 357.07 35.1253 357.41 35.488C357.75 35.8393 357.92 36.372 357.92 37.086C357.92 37.7887 357.79 38.327 357.529 38.701C357.269 39.075 356.855 39.3357 356.288 39.483C355.722 39.619 354.991 39.687 354.095 39.687C353.744 39.687 353.223 39.67 352.531 39.636C351.84 39.602 351.081 39.517 350.253 39.381L350.423 37.817C350.627 37.8283 350.888 37.8397 351.205 37.851C351.523 37.851 351.868 37.851 352.242 37.851C352.616 37.851 352.99 37.851 353.364 37.851C353.942 37.851 354.384 37.8397 354.69 37.817C354.996 37.783 355.206 37.715 355.319 37.613C355.433 37.511 355.489 37.358 355.489 37.154C355.489 36.9047 355.393 36.7347 355.2 36.644C355.008 36.5533 354.702 36.457 354.282 36.355L352.157 35.828C351.625 35.6807 351.211 35.4937 350.916 35.267C350.622 35.0403 350.412 34.7627 350.287 34.434C350.174 34.1053 350.117 33.7143 350.117 33.261C350.117 32.683 350.231 32.224 350.457 31.884C350.695 31.5327 351.075 31.2777 351.596 31.119C352.129 30.9603 352.832 30.881 353.704 30.881ZM363.518 30.881C364.934 30.881 365.949 31.1247 366.561 31.612C367.184 32.088 367.496 32.802 367.496 33.754C367.507 34.5247 367.314 35.1027 366.918 35.488C366.521 35.862 365.835 36.049 364.861 36.049H360.169V34.638H364.164C364.549 34.638 364.793 34.5587 364.895 34.4C365.008 34.23 365.065 33.9977 365.065 33.703C365.053 33.3063 364.934 33.0343 364.708 32.887C364.492 32.7283 364.124 32.649 363.603 32.649C363.138 32.649 362.775 32.7113 362.515 32.836C362.254 32.9607 362.073 33.1987 361.971 33.55C361.869 33.9013 361.818 34.4113 361.818 35.08C361.818 35.7827 361.88 36.3267 362.005 36.712C362.129 37.086 362.339 37.3467 362.634 37.494C362.94 37.6413 363.359 37.715 363.892 37.715C364.277 37.715 364.753 37.7037 365.32 37.681C365.898 37.647 366.476 37.596 367.054 37.528L367.292 39.075C366.963 39.2337 366.589 39.3583 366.17 39.449C365.75 39.5397 365.32 39.602 364.878 39.636C364.436 39.6813 364.011 39.704 363.603 39.704C362.537 39.704 361.676 39.551 361.019 39.245C360.373 38.9277 359.902 38.446 359.608 37.8C359.324 37.154 359.183 36.3267 359.183 35.318C359.183 34.2187 359.33 33.346 359.625 32.7C359.919 32.054 360.384 31.5893 361.019 31.306C361.653 31.0227 362.486 30.881 363.518 30.881ZM379.777 30.881C380.537 30.881 381.115 31.0793 381.511 31.476C381.908 31.8727 382.106 32.4507 382.106 33.21V39.5H379.607V33.992C379.607 33.6407 379.539 33.3913 379.403 33.244C379.267 33.0853 379.029 33.006 378.689 33.006C378.485 33.006 378.293 33.0343 378.111 33.091C377.93 33.1477 377.72 33.2383 377.482 33.363C377.244 33.4877 376.955 33.6577 376.615 33.873L376.479 32.479C377.023 31.9463 377.556 31.5497 378.077 31.289C378.61 31.017 379.177 30.881 379.777 30.881ZM371.141 31.102L371.396 32.768L371.651 32.989V39.5H369.135V31.102H371.141ZM374.541 30.881C375.289 30.881 375.856 31.0793 376.241 31.476C376.638 31.8613 376.836 32.4393 376.836 33.21V39.5H374.422V33.992C374.422 33.6293 374.343 33.3743 374.184 33.227C374.037 33.0797 373.805 33.006 373.487 33.006C373.295 33.006 373.102 33.0343 372.909 33.091C372.728 33.1363 372.513 33.2213 372.263 33.346C372.025 33.4707 371.731 33.6463 371.379 33.873L371.226 32.479C371.782 31.9463 372.32 31.5497 372.841 31.289C373.363 31.017 373.929 30.881 374.541 30.881ZM390.38 31.102V39.109C390.38 39.619 390.289 40.112 390.108 40.588C389.938 41.0753 389.688 41.5117 389.36 41.897C389.042 42.2823 388.657 42.594 388.204 42.832L386.81 41.744C387.195 41.3133 387.467 40.894 387.626 40.486C387.784 40.078 387.864 39.619 387.864 39.109V31.102H390.38ZM389.649 27.311C390.136 27.311 390.38 27.5603 390.38 28.059V28.977C390.38 29.487 390.136 29.742 389.649 29.742H388.544C388.056 29.742 387.813 29.487 387.813 28.977V28.059C387.813 27.5603 388.056 27.311 388.544 27.311H389.649ZM394.959 31.102V36.627C394.959 36.9783 395.032 37.2277 395.18 37.375C395.338 37.5223 395.588 37.596 395.928 37.596C396.279 37.596 396.625 37.5337 396.965 37.409C397.316 37.273 397.747 37.0633 398.257 36.78L398.461 38.157C397.849 38.6897 397.248 39.0863 396.659 39.347C396.069 39.6077 395.463 39.738 394.84 39.738C393.242 39.738 392.443 38.956 392.443 37.392V31.102H394.959ZM400.518 31.102V39.5H398.529L398.24 37.851L398.002 37.613V31.102H400.518ZM404.543 31.102L404.849 32.768L405.087 32.989V39.5H402.571V31.102H404.543ZM408.64 30.881L408.402 33.21H407.705C407.308 33.21 406.894 33.2667 406.464 33.38C406.033 33.4933 405.489 33.6633 404.832 33.89L404.662 32.479C405.251 31.9577 405.846 31.561 406.447 31.289C407.047 31.017 407.631 30.881 408.198 30.881H408.64ZM413.688 30.881C414.742 30.881 415.586 31.0283 416.221 31.323C416.856 31.6063 417.309 32.071 417.581 32.717C417.864 33.363 418.006 34.23 418.006 35.318C418.006 36.3833 417.864 37.239 417.581 37.885C417.309 38.531 416.856 38.9957 416.221 39.279C415.586 39.5623 414.742 39.704 413.688 39.704C412.645 39.704 411.801 39.5623 411.155 39.279C410.52 38.9957 410.061 38.531 409.778 37.885C409.495 37.239 409.353 36.3833 409.353 35.318C409.353 34.23 409.495 33.363 409.778 32.717C410.061 32.071 410.52 31.6063 411.155 31.323C411.801 31.0283 412.645 30.881 413.688 30.881ZM413.688 32.717C413.257 32.717 412.917 32.7907 412.668 32.938C412.419 33.0853 412.243 33.346 412.141 33.72C412.039 34.094 411.988 34.6267 411.988 35.318C411.988 35.998 412.039 36.525 412.141 36.899C412.243 37.273 412.419 37.5337 412.668 37.681C412.917 37.817 413.257 37.885 413.688 37.885C414.119 37.885 414.459 37.817 414.708 37.681C414.957 37.5337 415.133 37.273 415.235 36.899C415.337 36.525 415.388 35.998 415.388 35.318C415.388 34.6267 415.337 34.094 415.235 33.72C415.133 33.346 414.957 33.0853 414.708 32.938C414.459 32.7907 414.119 32.717 413.688 32.717ZM422.916 30.881C423.324 30.881 423.766 30.898 424.242 30.932C424.718 30.9547 425.183 30.9887 425.636 31.034C426.09 31.0793 426.492 31.136 426.843 31.204L426.673 32.768C426.129 32.7567 425.58 32.751 425.024 32.751C424.48 32.7397 423.948 32.734 423.426 32.734C422.984 32.7227 422.644 32.7283 422.406 32.751C422.168 32.7737 421.998 32.8303 421.896 32.921C421.806 33.0003 421.76 33.1477 421.76 33.363C421.76 33.6123 421.845 33.7823 422.015 33.873C422.185 33.9523 422.469 34.043 422.865 34.145L425.058 34.672C425.761 34.8533 426.282 35.1253 426.622 35.488C426.962 35.8393 427.132 36.372 427.132 37.086C427.132 37.7887 427.002 38.327 426.741 38.701C426.481 39.075 426.067 39.3357 425.5 39.483C424.934 39.619 424.203 39.687 423.307 39.687C422.956 39.687 422.435 39.67 421.743 39.636C421.052 39.602 420.293 39.517 419.465 39.381L419.635 37.817C419.839 37.8283 420.1 37.8397 420.417 37.851C420.735 37.851 421.08 37.851 421.454 37.851C421.828 37.851 422.202 37.851 422.576 37.851C423.154 37.851 423.596 37.8397 423.902 37.817C424.208 37.783 424.418 37.715 424.531 37.613C424.645 37.511 424.701 37.358 424.701 37.154C424.701 36.9047 424.605 36.7347 424.412 36.644C424.22 36.5533 423.914 36.457 423.494 36.355L421.369 35.828C420.837 35.6807 420.423 35.4937 420.128 35.267C419.834 35.0403 419.624 34.7627 419.499 34.434C419.386 34.1053 419.329 33.7143 419.329 33.261C419.329 32.683 419.443 32.224 419.669 31.884C419.907 31.5327 420.287 31.2777 420.808 31.119C421.341 30.9603 422.044 30.881 422.916 30.881Z" fill="#0597BA"/>
<line x1="444.5" y1="6.5" x2="444.5" y2="58.5" stroke="#0597BA"/>
<path fill-rule="evenodd" clip-rule="evenodd" d="M468.19 28.0621C467.849 28.0621 467.621 27.8345 467.621 27.4931C467.621 27.1518 467.849 26.9242 468.19 26.9242H489.356L487.08 24.8759L486.625 24.4207C486.511 24.3069 486.397 24.1931 486.397 23.9656C486.397 23.5104 487.08 23.169 487.421 23.5104L490.835 26.5828C490.835 26.5828 491.547 27.1768 491.518 27.4931C491.493 27.7611 491.428 27.8201 491.34 27.901C491.324 27.9156 491.307 27.9309 491.29 27.9483L487.762 31.1345L487.421 31.4759C487.08 31.8173 486.397 31.4759 486.397 31.0207C486.397 30.7931 486.511 30.6794 486.625 30.5656L486.966 30.2242L489.356 28.0621H468.19ZM467.849 37.0517L471.262 33.9793C471.262 33.9793 472.06 33.1816 472.539 33.6766C472.823 34.0544 472.514 34.4345 472.514 34.4345L469.783 36.9379H490.949C491.29 36.9379 491.518 37.1655 491.518 37.5069C491.518 37.8483 491.29 38.0759 490.949 38.1896H469.669C469.669 38.1896 471.949 40.1298 472.256 40.3745C472.563 40.6191 472.817 40.9753 472.52 41.2564C472.224 41.5374 471.786 41.3861 471.536 41.1756C471.285 40.9651 468.304 38.4172 468.304 38.4172L467.849 37.9621C467.735 37.8483 467.621 37.7345 467.621 37.5069C467.621 37.2793 467.735 37.1655 467.849 37.0517Z" fill="#0597BA"/>
<path d="M517.28 27.6C518.209 27.6 518.991 27.702 519.626 27.906C520.272 28.0987 520.788 28.4217 521.173 28.875C521.57 29.3283 521.859 29.946 522.04 30.728C522.221 31.4987 522.312 32.4677 522.312 33.635C522.312 34.8023 522.221 35.777 522.04 36.559C521.859 37.3297 521.57 37.9417 521.173 38.395C520.788 38.8483 520.272 39.177 519.626 39.381C518.991 39.5737 518.209 39.67 517.28 39.67C516.385 39.67 515.563 39.653 514.815 39.619C514.067 39.585 513.353 39.5453 512.673 39.5L513.761 37.579C514.192 37.6017 514.702 37.6243 515.291 37.647C515.892 37.6583 516.555 37.664 517.28 37.664C517.858 37.664 518.311 37.5507 518.64 37.324C518.98 37.086 519.218 36.6723 519.354 36.083C519.501 35.4937 519.575 34.6777 519.575 33.635C519.575 32.5923 519.501 31.7763 519.354 31.187C519.218 30.5977 518.98 30.184 518.64 29.946C518.311 29.708 517.858 29.589 517.28 29.589C516.589 29.589 515.971 29.5947 515.427 29.606C514.883 29.606 514.35 29.606 513.829 29.606L512.673 27.77C513.353 27.7247 514.061 27.685 514.798 27.651C515.546 27.617 516.373 27.6 517.28 27.6ZM515.274 27.77V39.5H512.673V27.77H515.274ZM528.102 30.881C529.519 30.881 530.533 31.1247 531.145 31.612C531.769 32.088 532.08 32.802 532.08 33.754C532.092 34.5247 531.899 35.1027 531.502 35.488C531.106 35.862 530.42 36.049 529.445 36.049H524.753V34.638H528.748C529.134 34.638 529.377 34.5587 529.479 34.4C529.593 34.23 529.649 33.9977 529.649 33.703C529.638 33.3063 529.519 33.0343 529.292 32.887C529.077 32.7283 528.709 32.649 528.187 32.649C527.723 32.649 527.36 32.7113 527.099 32.836C526.839 32.9607 526.657 33.1987 526.555 33.55C526.453 33.9013 526.402 34.4113 526.402 35.08C526.402 35.7827 526.465 36.3267 526.589 36.712C526.714 37.086 526.924 37.3467 527.218 37.494C527.524 37.6413 527.944 37.715 528.476 37.715C528.862 37.715 529.338 37.7037 529.904 37.681C530.482 37.647 531.06 37.596 531.638 37.528L531.876 39.075C531.548 39.2337 531.174 39.3583 530.754 39.449C530.335 39.5397 529.904 39.602 529.462 39.636C529.02 39.6813 528.595 39.704 528.187 39.704C527.122 39.704 526.261 39.551 525.603 39.245C524.957 38.9277 524.487 38.446 524.192 37.8C523.909 37.154 523.767 36.3267 523.767 35.318C523.767 34.2187 523.915 33.346 524.209 32.7C524.504 32.054 524.969 31.5893 525.603 31.306C526.238 31.0227 527.071 30.881 528.102 30.881ZM542.103 31.102L539.332 38.905C539.264 39.0863 539.157 39.2337 539.009 39.347C538.873 39.449 538.709 39.5 538.516 39.5H536.323C536.131 39.5 535.961 39.449 535.813 39.347C535.677 39.2337 535.575 39.0863 535.507 38.905L532.736 31.102H535.405L536.952 36.355C537.02 36.6043 537.083 36.8593 537.139 37.12C537.196 37.3807 537.253 37.63 537.309 37.868H537.53C537.598 37.6187 537.661 37.3693 537.717 37.12C537.785 36.8593 537.853 36.6043 537.921 36.355L539.434 31.102H542.103ZM547.112 30.881C548.166 30.881 549.01 31.0283 549.645 31.323C550.279 31.6063 550.733 32.071 551.005 32.717C551.288 33.363 551.43 34.23 551.43 35.318C551.43 36.3833 551.288 37.239 551.005 37.885C550.733 38.531 550.279 38.9957 549.645 39.279C549.01 39.5623 548.166 39.704 547.112 39.704C546.069 39.704 545.225 39.5623 544.579 39.279C543.944 38.9957 543.485 38.531 543.202 37.885C542.918 37.239 542.777 36.3833 542.777 35.318C542.777 34.23 542.918 33.363 543.202 32.717C543.485 32.071 543.944 31.6063 544.579 31.323C545.225 31.0283 546.069 30.881 547.112 30.881ZM547.112 32.717C546.681 32.717 546.341 32.7907 546.092 32.938C545.842 33.0853 545.667 33.346 545.565 33.72C545.463 34.094 545.412 34.6267 545.412 35.318C545.412 35.998 545.463 36.525 545.565 36.899C545.667 37.273 545.842 37.5337 546.092 37.681C546.341 37.817 546.681 37.885 547.112 37.885C547.542 37.885 547.882 37.817 548.132 37.681C548.381 37.5337 548.557 37.273 548.659 36.899C548.761 36.525 548.812 35.998 548.812 35.318C548.812 34.6267 548.761 34.094 548.659 33.72C548.557 33.346 548.381 33.0853 548.132 32.938C547.882 32.7907 547.542 32.717 547.112 32.717ZM555.677 27.6L555.66 36.814C555.66 37.0973 555.745 37.3127 555.915 37.46C556.085 37.596 556.334 37.664 556.663 37.664H557.343L557.632 39.364C557.496 39.432 557.303 39.4887 557.054 39.534C556.805 39.5907 556.55 39.6303 556.289 39.653C556.028 39.687 555.807 39.704 555.626 39.704C554.867 39.704 554.266 39.5057 553.824 39.109C553.382 38.7123 553.161 38.157 553.161 37.443V27.6H555.677ZM561.187 31.102V36.627C561.187 36.9783 561.261 37.2277 561.408 37.375C561.567 37.5223 561.816 37.596 562.156 37.596C562.507 37.596 562.853 37.5337 563.193 37.409C563.544 37.273 563.975 37.0633 564.485 36.78L564.689 38.157C564.077 38.6897 563.476 39.0863 562.887 39.347C562.298 39.6077 561.691 39.738 561.068 39.738C559.47 39.738 558.671 38.956 558.671 37.392V31.102H561.187ZM566.746 31.102V39.5H564.757L564.468 37.851L564.23 37.613V31.102H566.746ZM572.709 30.881C573.015 30.881 573.35 30.898 573.712 30.932C574.075 30.9547 574.438 31.0057 574.8 31.085C575.174 31.153 575.514 31.255 575.82 31.391L575.548 32.972C575.095 32.9607 574.659 32.9493 574.239 32.938C573.831 32.9267 573.463 32.921 573.134 32.921C572.624 32.921 572.222 32.989 571.927 33.125C571.633 33.261 571.417 33.5047 571.281 33.856C571.157 34.196 571.094 34.672 571.094 35.284C571.094 35.9073 571.157 36.3947 571.281 36.746C571.417 37.0973 571.633 37.341 571.927 37.477C572.222 37.613 572.624 37.681 573.134 37.681C573.316 37.681 573.548 37.6753 573.831 37.664C574.115 37.6527 574.421 37.6413 574.749 37.63C575.078 37.6073 575.401 37.5733 575.718 37.528L575.956 39.126C575.503 39.33 574.987 39.4773 574.409 39.568C573.831 39.6587 573.259 39.704 572.692 39.704C571.65 39.704 570.817 39.5623 570.193 39.279C569.581 38.9843 569.139 38.514 568.867 37.868C568.595 37.222 568.459 36.3607 568.459 35.284C568.459 34.2073 568.595 33.346 568.867 32.7C569.151 32.054 569.604 31.5893 570.227 31.306C570.851 31.0227 571.678 30.881 572.709 30.881ZM571.536 40.401C572.114 40.333 572.585 40.3103 572.947 40.333C573.31 40.367 573.576 40.469 573.746 40.639C573.916 40.8203 573.996 41.1093 573.984 41.506C573.962 42.0727 573.797 42.5373 573.491 42.9C573.185 43.274 572.777 43.5347 572.267 43.682C571.757 43.8293 571.191 43.8633 570.567 43.784L570.856 42.73C571.276 42.7413 571.627 42.6677 571.91 42.509C572.205 42.3617 572.364 42.101 572.386 41.727C572.409 41.557 572.347 41.455 572.199 41.421C572.063 41.387 571.763 41.3643 571.298 41.353L571.536 40.401ZM581.886 30.881C582.588 30.881 583.183 30.9773 583.671 31.17C584.158 31.3513 584.526 31.6687 584.776 32.122C585.036 32.564 585.167 33.176 585.167 33.958V39.5H583.161L582.804 37.681L582.634 37.426V33.941C582.634 33.5443 582.537 33.2553 582.345 33.074C582.163 32.8927 581.812 32.802 581.291 32.802C580.86 32.802 580.322 32.819 579.676 32.853C579.03 32.8757 578.367 32.9097 577.687 32.955L577.449 31.289C577.857 31.2097 578.327 31.1417 578.86 31.085C579.392 31.0283 579.925 30.983 580.458 30.949C580.99 30.9037 581.466 30.881 581.886 30.881ZM584.13 34.332L584.113 35.743L580.373 35.76C580.067 35.76 579.846 35.8337 579.71 35.981C579.585 36.1283 579.523 36.3267 579.523 36.576V36.984C579.523 37.2673 579.602 37.4883 579.761 37.647C579.919 37.7943 580.174 37.868 580.526 37.868C580.82 37.868 581.138 37.8057 581.478 37.681C581.829 37.5563 582.175 37.3807 582.515 37.154C582.855 36.9273 583.155 36.661 583.416 36.355V37.443C583.314 37.613 583.161 37.8283 582.957 38.089C582.764 38.3383 582.515 38.5877 582.209 38.837C581.903 39.075 581.546 39.279 581.138 39.449C580.73 39.619 580.265 39.704 579.744 39.704C579.234 39.704 578.775 39.6133 578.367 39.432C577.959 39.2507 577.636 38.9843 577.398 38.633C577.16 38.2817 577.041 37.8453 577.041 37.324V36.457C577.041 35.7883 577.267 35.267 577.721 34.893C578.174 34.519 578.797 34.332 579.591 34.332H584.13ZM579.744 27.175C580.027 27.1977 580.282 27.2487 580.509 27.328C580.735 27.396 580.951 27.4753 581.155 27.566C581.37 27.6567 581.58 27.7473 581.784 27.838C581.999 27.9173 582.22 27.974 582.447 28.008C582.741 28.0533 582.923 28.0137 582.991 27.889C583.07 27.7643 583.11 27.5547 583.11 27.26H584.198C584.322 28.0647 584.243 28.6767 583.96 29.096C583.676 29.504 583.291 29.691 582.804 29.657C582.418 29.623 582.067 29.5493 581.75 29.436C581.444 29.3113 581.155 29.1867 580.883 29.062C580.622 28.926 580.356 28.841 580.084 28.807C579.8 28.773 579.619 28.8183 579.54 28.943C579.472 29.0677 579.438 29.283 579.438 29.589H578.35C578.27 29.0223 578.287 28.5577 578.401 28.195C578.514 27.8323 578.695 27.566 578.945 27.396C579.194 27.226 579.46 27.1523 579.744 27.175ZM591.139 30.881C592.193 30.881 593.037 31.0283 593.672 31.323C594.307 31.6063 594.76 32.071 595.032 32.717C595.315 33.363 595.457 34.23 595.457 35.318C595.457 36.3833 595.315 37.239 595.032 37.885C594.76 38.531 594.307 38.9957 593.672 39.279C593.037 39.5623 592.193 39.704 591.139 39.704C590.096 39.704 589.252 39.5623 588.606 39.279C587.971 38.9957 587.512 38.531 587.229 37.885C586.946 37.239 586.804 36.3833 586.804 35.318C586.804 34.23 586.946 33.363 587.229 32.717C587.512 32.071 587.971 31.6063 588.606 31.323C589.252 31.0283 590.096 30.881 591.139 30.881ZM591.139 32.717C590.708 32.717 590.368 32.7907 590.119 32.938C589.87 33.0853 589.694 33.346 589.592 33.72C589.49 34.094 589.439 34.6267 589.439 35.318C589.439 35.998 589.49 36.525 589.592 36.899C589.694 37.273 589.87 37.5337 590.119 37.681C590.368 37.817 590.708 37.885 591.139 37.885C591.57 37.885 591.91 37.817 592.159 37.681C592.408 37.5337 592.584 37.273 592.686 36.899C592.788 36.525 592.839 35.998 592.839 35.318C592.839 34.6267 592.788 34.094 592.686 33.72C592.584 33.346 592.408 33.0853 592.159 32.938C591.91 32.7907 591.57 32.717 591.139 32.717ZM604.58 30.881C605.555 30.881 606.326 30.9717 606.892 31.153C607.47 31.3343 607.884 31.6177 608.133 32.003C608.394 32.3883 608.524 32.904 608.524 33.55C608.524 34.1733 608.4 34.6833 608.15 35.08C607.901 35.4653 607.482 35.7487 606.892 35.93C606.314 36.1113 605.538 36.202 604.563 36.202C603.589 36.202 602.807 36.1113 602.217 35.93C601.639 35.7487 601.22 35.4653 600.959 35.08C600.71 34.6947 600.585 34.1847 600.585 33.55C600.585 32.9153 600.71 32.4053 600.959 32.02C601.22 31.6233 601.645 31.3343 602.234 31.153C602.824 30.9717 603.606 30.881 604.58 30.881ZM604.563 32.428C603.94 32.428 603.509 32.513 603.271 32.683C603.033 32.8417 602.914 33.1307 602.914 33.55C602.914 33.9693 603.033 34.264 603.271 34.434C603.509 34.604 603.94 34.689 604.563 34.689C605.187 34.689 605.612 34.604 605.838 34.434C606.065 34.264 606.178 33.9693 606.178 33.55C606.178 33.1307 606.065 32.8417 605.838 32.683C605.612 32.513 605.187 32.428 604.563 32.428ZM609.493 31.102L609.357 32.173L607.113 32.462L606.501 31.102H609.493ZM602.03 35.692L603.288 35.913C603.13 36.0037 603.016 36.1453 602.948 36.338C602.892 36.5307 602.909 36.712 602.999 36.882C603.09 37.052 603.288 37.154 603.594 37.188L606.688 37.545C607.572 37.6357 608.196 37.885 608.558 38.293C608.921 38.6897 609.102 39.2733 609.102 40.044C609.102 40.7693 608.955 41.3247 608.66 41.71C608.366 42.1067 607.895 42.3787 607.249 42.526C606.603 42.6733 605.742 42.747 604.665 42.747C603.781 42.747 603.05 42.7017 602.472 42.611C601.906 42.5317 601.452 42.3957 601.112 42.203C600.784 42.0103 600.551 41.7553 600.415 41.438C600.291 41.132 600.228 40.7467 600.228 40.282C600.228 39.9307 600.291 39.6303 600.415 39.381C600.54 39.1203 600.75 38.888 601.044 38.684C601.35 38.48 601.775 38.293 602.319 38.123L603.56 37.681L604.461 38.038L603.781 38.48C603.498 38.684 603.266 38.8597 603.084 39.007C602.914 39.143 602.79 39.279 602.71 39.415C602.642 39.551 602.608 39.7323 602.608 39.959C602.608 40.2197 602.665 40.418 602.778 40.554C602.892 40.7013 603.096 40.7977 603.39 40.843C603.696 40.8997 604.11 40.928 604.631 40.928C605.175 40.928 605.6 40.8997 605.906 40.843C606.212 40.7977 606.422 40.707 606.535 40.571C606.66 40.435 606.722 40.2423 606.722 39.993C606.722 39.7777 606.677 39.619 606.586 39.517C606.507 39.415 606.365 39.3413 606.161 39.296C605.969 39.2393 605.697 39.1883 605.345 39.143L602.71 38.854C602.268 38.8087 601.923 38.6897 601.673 38.497C601.424 38.3043 601.248 38.072 601.146 37.8C601.056 37.5167 601.033 37.2333 601.078 36.95C601.124 36.6667 601.226 36.4117 601.384 36.185C601.554 35.9583 601.77 35.794 602.03 35.692ZM612.69 31.102L612.996 32.768L613.234 32.989V39.5H610.718V31.102H612.69ZM616.787 30.881L616.549 33.21H615.852C615.456 33.21 615.042 33.2667 614.611 33.38C614.181 33.4933 613.637 33.6633 612.979 33.89L612.809 32.479C613.399 31.9577 613.994 31.561 614.594 31.289C615.195 31.017 615.779 30.881 616.345 30.881H616.787ZM622.36 30.881C623.063 30.881 623.658 30.9773 624.145 31.17C624.633 31.3513 625.001 31.6687 625.25 32.122C625.511 32.564 625.641 33.176 625.641 33.958V39.5H623.635L623.278 37.681L623.108 37.426V33.941C623.108 33.5443 623.012 33.2553 622.819 33.074C622.638 32.8927 622.287 32.802 621.765 32.802C621.335 32.802 620.796 32.819 620.15 32.853C619.504 32.8757 618.841 32.9097 618.161 32.955L617.923 31.289C618.331 31.2097 618.802 31.1417 619.334 31.085C619.867 31.0283 620.4 30.983 620.932 30.949C621.465 30.9037 621.941 30.881 622.36 30.881ZM624.604 34.332L624.587 35.743L620.847 35.76C620.541 35.76 620.32 35.8337 620.184 35.981C620.06 36.1283 619.997 36.3267 619.997 36.576V36.984C619.997 37.2673 620.077 37.4883 620.235 37.647C620.394 37.7943 620.649 37.868 621 37.868C621.295 37.868 621.612 37.8057 621.952 37.681C622.304 37.5563 622.649 37.3807 622.989 37.154C623.329 36.9273 623.63 36.661 623.89 36.355V37.443C623.788 37.613 623.635 37.8283 623.431 38.089C623.239 38.3383 622.989 38.5877 622.683 38.837C622.377 39.075 622.02 39.279 621.612 39.449C621.204 39.619 620.74 39.704 620.218 39.704C619.708 39.704 619.249 39.6133 618.841 39.432C618.433 39.2507 618.11 38.9843 617.872 38.633C617.634 38.2817 617.515 37.8453 617.515 37.324V36.457C617.515 35.7883 617.742 35.267 618.195 34.893C618.649 34.519 619.272 34.332 620.065 34.332H624.604ZM623.771 26.512L624.859 28.212L621.068 30.099L620.32 29.028L623.771 26.512ZM630.9 28.773V36.814C630.9 37.12 630.968 37.341 631.104 37.477C631.251 37.6017 631.489 37.664 631.818 37.664H632.906L633.178 39.364C632.974 39.432 632.724 39.4887 632.43 39.534C632.135 39.5907 631.84 39.6303 631.546 39.653C631.251 39.687 631.002 39.704 630.798 39.704C630.038 39.704 629.443 39.5 629.013 39.092C628.593 38.684 628.384 38.1117 628.384 37.375L628.367 28.773H630.9ZM633.246 31.102V32.751H626.905V31.187L628.537 31.102H633.246ZM637.158 31.102V39.5H634.659V31.102H637.158ZM636.461 27.396C636.96 27.396 637.209 27.651 637.209 28.161V29.062C637.209 29.572 636.96 29.827 636.461 29.827H635.373C634.875 29.827 634.625 29.572 634.625 29.062V28.161C634.625 27.651 634.875 27.396 635.373 27.396H636.461ZM642.486 30.881C642.894 30.881 643.336 30.898 643.812 30.932C644.288 30.9547 644.752 30.9887 645.206 31.034C645.659 31.0793 646.061 31.136 646.413 31.204L646.243 32.768C645.699 32.7567 645.149 32.751 644.594 32.751C644.05 32.7397 643.517 32.734 642.996 32.734C642.554 32.7227 642.214 32.7283 641.976 32.751C641.738 32.7737 641.568 32.8303 641.466 32.921C641.375 33.0003 641.33 33.1477 641.33 33.363C641.33 33.6123 641.415 33.7823 641.585 33.873C641.755 33.9523 642.038 34.043 642.435 34.145L644.628 34.672C645.33 34.8533 645.852 35.1253 646.192 35.488C646.532 35.8393 646.702 36.372 646.702 37.086C646.702 37.7887 646.571 38.327 646.311 38.701C646.05 39.075 645.636 39.3357 645.07 39.483C644.503 39.619 643.772 39.687 642.877 39.687C642.525 39.687 642.004 39.67 641.313 39.636C640.621 39.602 639.862 39.517 639.035 39.381L639.205 37.817C639.409 37.8283 639.669 37.8397 639.987 37.851C640.304 37.851 640.65 37.851 641.024 37.851C641.398 37.851 641.772 37.851 642.146 37.851C642.724 37.851 643.166 37.8397 643.472 37.817C643.778 37.783 643.987 37.715 644.101 37.613C644.214 37.511 644.271 37.358 644.271 37.154C644.271 36.9047 644.174 36.7347 643.982 36.644C643.789 36.5533 643.483 36.457 643.064 36.355L640.939 35.828C640.406 35.6807 639.992 35.4937 639.698 35.267C639.403 35.0403 639.193 34.7627 639.069 34.434C638.955 34.1053 638.899 33.7143 638.899 33.261C638.899 32.683 639.012 32.224 639.239 31.884C639.477 31.5327 639.856 31.2777 640.378 31.119C640.91 30.9603 641.613 30.881 642.486 30.881Z" fill="#0597BA"/>
<line x1="666.5" y1="6.5" x2="666.5" y2="58.5" stroke="#0597BA"/>
<g clip-path="url(#clip0_4704_31732)">
<path d="M714.439 31.9225L702.071 19.5544C701.569 19.0594 700.881 18.75 700.125 18.75H690.5C688.981 18.75 687.75 19.9806 687.75 21.5V31.125C687.75 31.8881 688.059 32.5756 688.561 33.0706L700.936 45.4456C701.431 45.9406 702.119 46.25 702.875 46.25C703.631 46.25 704.326 45.9406 704.821 45.4456L714.446 35.8206C714.941 35.3187 715.25 34.6313 715.25 33.875C715.25 33.1119 714.941 32.4244 714.439 31.9225ZM692.562 25.625C691.421 25.625 690.5 24.7037 690.5 23.5625C690.5 22.4213 691.421 21.5 692.562 21.5C693.704 21.5 694.625 22.4213 694.625 23.5625C694.625 24.7037 693.704 25.625 692.562 25.625Z" stroke="#0597BA" stroke-width="1.5"/>
</g>
<path d="M747.192 27.77C747.804 27.77 748.121 28.0873 748.144 28.722L748.586 39.5H746.189L745.798 29.776H745.492L743.605 37.086C743.503 37.63 743.163 37.902 742.585 37.902H740.953C740.375 37.902 740.024 37.63 739.899 37.086L738.012 29.776H737.723L737.366 39.5H734.952L735.394 28.722C735.417 28.0873 735.74 27.77 736.363 27.77H738.794C739.349 27.77 739.689 28.0477 739.814 28.603L741.327 34.502C741.395 34.774 741.452 35.0517 741.497 35.335C741.542 35.607 741.593 35.8847 741.65 36.168H741.871C741.928 35.8847 741.979 35.607 742.024 35.335C742.081 35.0517 742.137 34.7683 742.194 34.485L743.69 28.603C743.803 28.0477 744.143 27.77 744.71 27.77H747.192ZM754.554 30.881C755.97 30.881 756.985 31.1247 757.597 31.612C758.22 32.088 758.532 32.802 758.532 33.754C758.543 34.5247 758.35 35.1027 757.954 35.488C757.557 35.862 756.871 36.049 755.897 36.049H751.205V34.638H755.2C755.585 34.638 755.829 34.5587 755.931 34.4C756.044 34.23 756.101 33.9977 756.101 33.703C756.089 33.3063 755.97 33.0343 755.744 32.887C755.528 32.7283 755.16 32.649 754.639 32.649C754.174 32.649 753.811 32.7113 753.551 32.836C753.29 32.9607 753.109 33.1987 753.007 33.55C752.905 33.9013 752.854 34.4113 752.854 35.08C752.854 35.7827 752.916 36.3267 753.041 36.712C753.165 37.086 753.375 37.3467 753.67 37.494C753.976 37.6413 754.395 37.715 754.928 37.715C755.313 37.715 755.789 37.7037 756.356 37.681C756.934 37.647 757.512 37.596 758.09 37.528L758.328 39.075C757.999 39.2337 757.625 39.3583 757.206 39.449C756.786 39.5397 756.356 39.602 755.914 39.636C755.472 39.6813 755.047 39.704 754.639 39.704C753.573 39.704 752.712 39.551 752.055 39.245C751.409 38.9277 750.938 38.446 750.644 37.8C750.36 37.154 750.219 36.3267 750.219 35.318C750.219 34.2187 750.366 33.346 750.661 32.7C750.955 32.054 751.42 31.5893 752.055 31.306C752.689 31.0227 753.522 30.881 754.554 30.881ZM762.704 27.6L762.687 36.814C762.687 37.0973 762.772 37.3127 762.942 37.46C763.112 37.596 763.362 37.664 763.69 37.664H764.37L764.659 39.364C764.523 39.432 764.331 39.4887 764.081 39.534C763.832 39.5907 763.577 39.6303 763.316 39.653C763.056 39.687 762.835 39.704 762.653 39.704C761.894 39.704 761.293 39.5057 760.851 39.109C760.409 38.7123 760.188 38.157 760.188 37.443V27.6H762.704ZM771.597 30.881C773.184 30.881 773.977 31.6573 773.977 33.21V39.5H771.444V33.992C771.444 33.618 771.376 33.363 771.24 33.227C771.116 33.0797 770.889 33.006 770.56 33.006C770.198 33.006 769.824 33.074 769.438 33.21C769.053 33.346 768.577 33.567 768.01 33.873L767.789 32.564C768.413 32.02 769.047 31.6063 769.693 31.323C770.339 31.0283 770.974 30.881 771.597 30.881ZM768.265 27.6L768.282 30.507C768.282 30.949 768.254 31.3683 768.197 31.765C768.152 32.1617 768.095 32.496 768.027 32.768L768.265 32.989V39.5H765.749V27.6H768.265ZM779.954 30.881C781.008 30.881 781.853 31.0283 782.487 31.323C783.122 31.6063 783.575 32.071 783.847 32.717C784.131 33.363 784.272 34.23 784.272 35.318C784.272 36.3833 784.131 37.239 783.847 37.885C783.575 38.531 783.122 38.9957 782.487 39.279C781.853 39.5623 781.008 39.704 779.954 39.704C778.912 39.704 778.067 39.5623 777.421 39.279C776.787 38.9957 776.328 38.531 776.044 37.885C775.761 37.239 775.619 36.3833 775.619 35.318C775.619 34.23 775.761 33.363 776.044 32.717C776.328 32.071 776.787 31.6063 777.421 31.323C778.067 31.0283 778.912 30.881 779.954 30.881ZM779.954 32.717C779.524 32.717 779.184 32.7907 778.934 32.938C778.685 33.0853 778.509 33.346 778.407 33.72C778.305 34.094 778.254 34.6267 778.254 35.318C778.254 35.998 778.305 36.525 778.407 36.899C778.509 37.273 778.685 37.5337 778.934 37.681C779.184 37.817 779.524 37.885 779.954 37.885C780.385 37.885 780.725 37.817 780.974 37.681C781.224 37.5337 781.399 37.273 781.501 36.899C781.603 36.525 781.654 35.998 781.654 35.318C781.654 34.6267 781.603 34.094 781.501 33.72C781.399 33.346 781.224 33.0853 780.974 32.938C780.725 32.7907 780.385 32.717 779.954 32.717ZM787.959 31.102L788.265 32.768L788.503 32.989V39.5H785.987V31.102H787.959ZM792.056 30.881L791.818 33.21H791.121C790.724 33.21 790.31 33.2667 789.88 33.38C789.449 33.4933 788.905 33.6633 788.248 33.89L788.078 32.479C788.667 31.9577 789.262 31.561 789.863 31.289C790.463 31.017 791.047 30.881 791.614 30.881H792.056ZM797.087 30.881C798.504 30.881 799.518 31.1247 800.13 31.612C800.753 32.088 801.065 32.802 801.065 33.754C801.076 34.5247 800.884 35.1027 800.487 35.488C800.09 35.862 799.405 36.049 798.43 36.049H793.738V34.638H797.733C798.118 34.638 798.362 34.5587 798.464 34.4C798.577 34.23 798.634 33.9977 798.634 33.703C798.623 33.3063 798.504 33.0343 798.277 32.887C798.062 32.7283 797.693 32.649 797.172 32.649C796.707 32.649 796.345 32.7113 796.084 32.836C795.823 32.9607 795.642 33.1987 795.54 33.55C795.438 33.9013 795.387 34.4113 795.387 35.08C795.387 35.7827 795.449 36.3267 795.574 36.712C795.699 37.086 795.908 37.3467 796.203 37.494C796.509 37.6413 796.928 37.715 797.461 37.715C797.846 37.715 798.322 37.7037 798.889 37.681C799.467 37.647 800.045 37.596 800.623 37.528L800.861 39.075C800.532 39.2337 800.158 39.3583 799.739 39.449C799.32 39.5397 798.889 39.602 798.447 39.636C798.005 39.6813 797.58 39.704 797.172 39.704C796.107 39.704 795.245 39.551 794.588 39.245C793.942 38.9277 793.472 38.446 793.177 37.8C792.894 37.154 792.752 36.3267 792.752 35.318C792.752 34.2187 792.899 33.346 793.194 32.7C793.489 32.054 793.953 31.5893 794.588 31.306C795.223 31.0227 796.056 30.881 797.087 30.881ZM805.901 30.881C806.309 30.881 806.751 30.898 807.227 30.932C807.703 30.9547 808.167 30.9887 808.621 31.034C809.074 31.0793 809.476 31.136 809.828 31.204L809.658 32.768C809.114 32.7567 808.564 32.751 808.009 32.751C807.465 32.7397 806.932 32.734 806.411 32.734C805.969 32.7227 805.629 32.7283 805.391 32.751C805.153 32.7737 804.983 32.8303 804.881 32.921C804.79 33.0003 804.745 33.1477 804.745 33.363C804.745 33.6123 804.83 33.7823 805 33.873C805.17 33.9523 805.453 34.043 805.85 34.145L808.043 34.672C808.745 34.8533 809.267 35.1253 809.607 35.488C809.947 35.8393 810.117 36.372 810.117 37.086C810.117 37.7887 809.986 38.327 809.726 38.701C809.465 39.075 809.051 39.3357 808.485 39.483C807.918 39.619 807.187 39.687 806.292 39.687C805.94 39.687 805.419 39.67 804.728 39.636C804.036 39.602 803.277 39.517 802.45 39.381L802.62 37.817C802.824 37.8283 803.084 37.8397 803.402 37.851C803.719 37.851 804.065 37.851 804.439 37.851C804.813 37.851 805.187 37.851 805.561 37.851C806.139 37.851 806.581 37.8397 806.887 37.817C807.193 37.783 807.402 37.715 807.516 37.613C807.629 37.511 807.686 37.358 807.686 37.154C807.686 36.9047 807.589 36.7347 807.397 36.644C807.204 36.5533 806.898 36.457 806.479 36.355L804.354 35.828C803.821 35.6807 803.407 35.4937 803.113 35.267C802.818 35.0403 802.608 34.7627 802.484 34.434C802.37 34.1053 802.314 33.7143 802.314 33.261C802.314 32.683 802.427 32.224 802.654 31.884C802.892 31.5327 803.271 31.2777 803.793 31.119C804.325 30.9603 805.028 30.881 805.901 30.881ZM820.93 30.898C821.984 30.898 822.737 31.2833 823.191 32.054C823.644 32.8247 823.871 33.9297 823.871 35.369C823.871 36.491 823.752 37.3693 823.514 38.004C823.287 38.6387 822.936 39.0863 822.46 39.347C821.995 39.5963 821.411 39.721 820.709 39.721C820.108 39.721 819.536 39.636 818.992 39.466C818.448 39.296 817.966 39.0127 817.547 38.616L817.717 37.494C818.091 37.6073 818.431 37.7093 818.737 37.8C819.054 37.8793 819.411 37.919 819.808 37.919C820.17 37.919 820.459 37.8567 820.675 37.732C820.89 37.6073 821.043 37.3637 821.134 37.001C821.236 36.627 821.287 36.0887 821.287 35.386C821.287 34.6947 821.241 34.1677 821.151 33.805C821.06 33.431 820.913 33.176 820.709 33.04C820.505 32.8927 820.238 32.819 819.91 32.819C819.547 32.819 819.213 32.8927 818.907 33.04C818.601 33.176 818.255 33.3743 817.87 33.635L817.547 32.479C817.773 32.173 818.062 31.901 818.414 31.663C818.776 31.425 819.173 31.238 819.604 31.102C820.034 30.966 820.476 30.898 820.93 30.898ZM817.445 31.102L817.683 32.632L817.921 32.887V38.344L817.836 38.548C817.87 38.888 817.892 39.2393 817.904 39.602C817.926 39.976 817.932 40.3443 817.921 40.707V42.73H815.405V31.102H817.445ZM827.57 31.102L827.876 32.768L828.114 32.989V39.5H825.598V31.102H827.57ZM831.667 30.881L831.429 33.21H830.732C830.335 33.21 829.922 33.2667 829.491 33.38C829.06 33.4933 828.516 33.6633 827.859 33.89L827.689 32.479C828.278 31.9577 828.873 31.561 829.474 31.289C830.075 31.017 830.658 30.881 831.225 30.881H831.667ZM836.698 30.881C838.115 30.881 839.129 31.1247 839.741 31.612C840.365 32.088 840.676 32.802 840.676 33.754C840.688 34.5247 840.495 35.1027 840.098 35.488C839.702 35.862 839.016 36.049 838.041 36.049H833.349V34.638H837.344C837.73 34.638 837.973 34.5587 838.075 34.4C838.189 34.23 838.245 33.9977 838.245 33.703C838.234 33.3063 838.115 33.0343 837.888 32.887C837.673 32.7283 837.305 32.649 836.783 32.649C836.319 32.649 835.956 32.7113 835.695 32.836C835.435 32.9607 835.253 33.1987 835.151 33.55C835.049 33.9013 834.998 34.4113 834.998 35.08C834.998 35.7827 835.061 36.3267 835.185 36.712C835.31 37.086 835.52 37.3467 835.814 37.494C836.12 37.6413 836.54 37.715 837.072 37.715C837.458 37.715 837.934 37.7037 838.5 37.681C839.078 37.647 839.656 37.596 840.234 37.528L840.472 39.075C840.144 39.2337 839.77 39.3583 839.35 39.449C838.931 39.5397 838.5 39.602 838.058 39.636C837.616 39.6813 837.191 39.704 836.783 39.704C835.718 39.704 834.857 39.551 834.199 39.245C833.553 38.9277 833.083 38.446 832.788 37.8C832.505 37.154 832.363 36.3267 832.363 35.318C832.363 34.2187 832.511 33.346 832.805 32.7C833.1 32.054 833.565 31.5893 834.199 31.306C834.834 31.0227 835.667 30.881 836.698 30.881ZM846.226 30.881C846.532 30.881 846.866 30.898 847.229 30.932C847.592 30.9547 847.954 31.0057 848.317 31.085C848.691 31.153 849.031 31.255 849.337 31.391L849.065 32.972C848.612 32.9607 848.175 32.9493 847.756 32.938C847.348 32.9267 846.98 32.921 846.651 32.921C846.141 32.921 845.739 32.989 845.444 33.125C845.149 33.261 844.934 33.5047 844.798 33.856C844.673 34.196 844.611 34.672 844.611 35.284C844.611 35.9073 844.673 36.3947 844.798 36.746C844.934 37.0973 845.149 37.341 845.444 37.477C845.739 37.613 846.141 37.681 846.651 37.681C846.832 37.681 847.065 37.6753 847.348 37.664C847.631 37.6527 847.937 37.6413 848.266 37.63C848.595 37.6073 848.918 37.5733 849.235 37.528L849.473 39.126C849.02 39.33 848.504 39.4773 847.926 39.568C847.348 39.6587 846.776 39.704 846.209 39.704C845.166 39.704 844.333 39.5623 843.71 39.279C843.098 38.9843 842.656 38.514 842.384 37.868C842.112 37.222 841.976 36.3607 841.976 35.284C841.976 34.2073 842.112 33.346 842.384 32.7C842.667 32.054 843.121 31.5893 843.744 31.306C844.367 31.0227 845.195 30.881 846.226 30.881ZM845.053 40.401C845.631 40.333 846.101 40.3103 846.464 40.333C846.827 40.367 847.093 40.469 847.263 40.639C847.433 40.8203 847.512 41.1093 847.501 41.506C847.478 42.0727 847.314 42.5373 847.008 42.9C846.702 43.274 846.294 43.5347 845.784 43.682C845.274 43.8293 844.707 43.8633 844.084 43.784L844.373 42.73C844.792 42.7413 845.144 42.6677 845.427 42.509C845.722 42.3617 845.88 42.101 845.903 41.727C845.926 41.557 845.863 41.455 845.716 41.421C845.58 41.387 845.28 41.3643 844.815 41.353L845.053 40.401ZM854.861 30.881C855.915 30.881 856.759 31.0283 857.394 31.323C858.028 31.6063 858.482 32.071 858.754 32.717C859.037 33.363 859.179 34.23 859.179 35.318C859.179 36.3833 859.037 37.239 858.754 37.885C858.482 38.531 858.028 38.9957 857.394 39.279C856.759 39.5623 855.915 39.704 854.861 39.704C853.818 39.704 852.974 39.5623 852.328 39.279C851.693 38.9957 851.234 38.531 850.951 37.885C850.667 37.239 850.526 36.3833 850.526 35.318C850.526 34.23 850.667 33.363 850.951 32.717C851.234 32.071 851.693 31.6063 852.328 31.323C852.974 31.0283 853.818 30.881 854.861 30.881ZM854.861 32.717C854.43 32.717 854.09 32.7907 853.841 32.938C853.591 33.0853 853.416 33.346 853.314 33.72C853.212 34.094 853.161 34.6267 853.161 35.318C853.161 35.998 853.212 36.525 853.314 36.899C853.416 37.273 853.591 37.5337 853.841 37.681C854.09 37.817 854.43 37.885 854.861 37.885C855.291 37.885 855.631 37.817 855.881 37.681C856.13 37.5337 856.306 37.273 856.408 36.899C856.51 36.525 856.561 35.998 856.561 35.318C856.561 34.6267 856.51 34.094 856.408 33.72C856.306 33.346 856.13 33.0853 855.881 32.938C855.631 32.7907 855.291 32.717 854.861 32.717ZM864.089 30.881C864.497 30.881 864.939 30.898 865.415 30.932C865.891 30.9547 866.356 30.9887 866.809 31.034C867.262 31.0793 867.665 31.136 868.016 31.204L867.846 32.768C867.302 32.7567 866.752 32.751 866.197 32.751C865.653 32.7397 865.12 32.734 864.599 32.734C864.157 32.7227 863.817 32.7283 863.579 32.751C863.341 32.7737 863.171 32.8303 863.069 32.921C862.978 33.0003 862.933 33.1477 862.933 33.363C862.933 33.6123 863.018 33.7823 863.188 33.873C863.358 33.9523 863.641 34.043 864.038 34.145L866.231 34.672C866.934 34.8533 867.455 35.1253 867.795 35.488C868.135 35.8393 868.305 36.372 868.305 37.086C868.305 37.7887 868.175 38.327 867.914 38.701C867.653 39.075 867.24 39.3357 866.673 39.483C866.106 39.619 865.375 39.687 864.48 39.687C864.129 39.687 863.607 39.67 862.916 39.636C862.225 39.602 861.465 39.517 860.638 39.381L860.808 37.817C861.012 37.8283 861.273 37.8397 861.59 37.851C861.907 37.851 862.253 37.851 862.627 37.851C863.001 37.851 863.375 37.851 863.749 37.851C864.327 37.851 864.769 37.8397 865.075 37.817C865.381 37.783 865.591 37.715 865.704 37.613C865.817 37.511 865.874 37.358 865.874 37.154C865.874 36.9047 865.778 36.7347 865.585 36.644C865.392 36.5533 865.086 36.457 864.667 36.355L862.542 35.828C862.009 35.6807 861.596 35.4937 861.301 35.267C861.006 35.0403 860.797 34.7627 860.672 34.434C860.559 34.1053 860.502 33.7143 860.502 33.261C860.502 32.683 860.615 32.224 860.842 31.884C861.08 31.5327 861.46 31.2777 861.981 31.119C862.514 30.9603 863.216 30.881 864.089 30.881Z" fill="#0597BA"/>
<line x1="888.5" y1="6.5" x2="888.5" y2="58.5" stroke="#0597BA"/>
<path d="M922.527 17.4128C923.624 17.4128 924.72 17.4158 925.817 17.4113C926.175 17.4098 926.417 17.2227 926.426 16.9646C926.433 16.7057 926.198 16.52 925.837 16.5015C925.785 16.4986 925.731 16.5008 925.679 16.5008C923.571 16.5008 921.462 16.5008 919.353 16.5023C919.238 16.5023 919.12 16.5067 919.009 16.5311C918.693 16.6014 918.536 16.8817 918.668 17.1369C918.784 17.361 919.01 17.415 919.269 17.4143C920.355 17.4121 921.441 17.4135 922.527 17.4135L922.527 17.4128Z" fill="white"/>
<path d="M915.502 24.5721C915.683 24.2744 915.931 24.1999 916.232 24.2009C918.866 24.2109 921.501 24.2089 924.134 24.2009C924.292 24.2009 924.471 24.1642 924.605 24.0729C927.59 22.0356 930.569 19.9883 933.548 17.943C933.616 17.8964 933.68 17.8408 933.829 17.7257C933.634 17.7257 933.536 17.7257 933.437 17.7257C932.167 17.7257 930.897 17.7277 929.627 17.7227C929.494 17.7227 929.355 17.7078 929.23 17.6602C929.003 17.5729 928.907 17.3556 928.917 17.0827C928.927 16.8088 929.045 16.6113 929.276 16.5458C929.396 16.512 929.523 16.5031 929.647 16.5031C931.605 16.5011 933.562 16.4942 935.519 16.511C935.755 16.513 936.018 16.5964 936.223 16.7363C939.81 19.1855 943.388 21.6545 946.976 24.1007C947.344 24.3518 947.502 24.6326 947.5 25.1536C947.484 30.0946 947.486 35.0356 947.497 39.9757C947.498 40.4202 947.365 40.6792 947.049 40.8946C943.427 43.3706 939.81 45.8555 936.196 48.3473C935.889 48.5587 935.633 48.5468 935.327 48.3354C931.775 45.8842 928.219 43.444 924.659 41.0097C924.506 40.9055 924.31 40.845 924.134 40.845C921.5 40.8351 918.865 40.8341 916.231 40.843C915.93 40.844 915.682 40.7715 915.5 40.4738V40.0283C915.661 39.67 915.932 39.6174 916.242 39.6174C918.71 39.6234 921.178 39.6204 923.645 39.6204H924.017V33.1164C923.877 33.1164 923.762 33.1164 923.649 33.1164C922.128 33.1164 920.608 33.1164 919.088 33.1164C918.7 33.1164 918.471 32.8911 918.474 32.519C918.475 32.1478 918.703 31.9295 919.095 31.9295C920.625 31.9295 922.156 31.9295 923.686 31.9295C923.796 31.9295 923.907 31.9295 924.015 31.9295V25.4156H923.616C921.148 25.4156 918.681 25.4116 916.213 25.4206C915.909 25.4215 915.657 25.358 915.501 25.0186V24.5731L915.502 24.5721ZM925.072 25.8751C925.064 25.9951 925.058 26.0448 925.058 26.0934C925.058 30.6007 925.059 35.1091 925.051 39.6164C925.051 39.8695 925.16 39.9538 925.31 40.057C928.525 42.2601 931.737 44.4681 934.951 46.6732C935.038 46.7327 935.129 46.7833 935.24 46.8508C935.246 46.7436 935.253 46.6722 935.253 46.6007C935.253 42.1182 935.251 37.6347 935.261 33.1521C935.261 32.8852 935.15 32.7909 934.991 32.6817C931.866 30.5392 928.742 28.3937 925.618 26.2482C925.449 26.1321 925.28 26.017 925.072 25.8741V25.8751ZM946.493 25.886C946.375 25.9554 946.293 25.9981 946.216 26.0507C945.397 26.6124 944.582 27.184 943.756 27.7308C943.562 27.8598 943.506 28.0067 943.507 28.2567C943.516 29.9785 943.509 31.6993 943.514 33.421C943.515 33.7525 943.456 34.0185 943.19 34.1991C942.151 34.9007 941.121 35.6211 940.081 36.3237C939.622 36.6334 939.25 36.3634 939.249 35.7293C939.246 34.2556 939.249 32.782 939.249 31.3083V30.8587C939.12 30.9371 939.029 30.9868 938.943 31.0453C938.15 31.5881 937.362 32.1409 936.563 32.6688C936.354 32.8068 936.278 32.9586 936.279 33.2464C936.288 37.6555 936.285 42.0646 936.286 46.4727C936.286 46.5888 936.297 46.7049 936.305 46.8627C936.405 46.7992 936.468 46.7605 936.53 46.7188C939.78 44.488 943.029 42.2531 946.284 40.0302C946.473 39.9012 946.498 39.7434 946.498 39.5202C946.494 35.1111 946.495 30.702 946.495 26.2938V25.886H946.493ZM945.966 24.8261C945.843 24.7348 945.758 24.6664 945.67 24.6058C942.746 22.5973 939.823 20.5887 936.898 18.5801C936.53 18.3271 936.158 17.8785 935.789 17.8815C935.408 17.8845 935.026 18.3211 934.65 18.5782C934.033 18.9989 933.418 19.4266 932.753 19.8851C932.82 19.9278 932.847 19.9446 932.874 19.9635C936.201 22.2261 939.527 24.4897 942.858 26.7444C942.937 26.797 943.084 26.795 943.164 26.7414C944.086 26.1222 945.001 25.489 945.967 24.8271L945.966 24.8261ZM925.595 24.8162C925.63 24.8509 925.644 24.8688 925.662 24.8817C928.97 27.1552 932.278 29.4307 935.592 31.6933C935.689 31.7588 935.877 31.742 935.98 31.6735C936.85 31.0949 937.71 30.4955 938.573 29.9021C938.613 29.8753 938.647 29.8376 938.699 29.7919C938.642 29.7413 938.612 29.7086 938.578 29.6858C935.278 27.44 931.979 25.1933 928.674 22.9595C928.569 22.889 928.37 22.9059 928.26 22.9783C927.443 23.5182 926.637 24.0818 925.829 24.6386C925.751 24.6922 925.678 24.7547 925.596 24.8172L925.595 24.8162ZM941.968 27.57C941.897 27.5065 941.86 27.4658 941.817 27.437C938.517 25.1923 935.216 22.9456 931.909 20.7127C931.813 20.6472 931.626 20.6661 931.523 20.7336C930.922 21.1246 930.332 21.5414 929.74 21.9522C929.674 21.9979 929.614 22.0564 929.523 22.1318C930.187 22.5834 930.815 23.0131 931.444 23.4408C934.14 25.2747 936.836 27.1096 939.534 28.9395C939.623 29 939.77 29.0655 939.84 29.0199C940.546 28.5564 941.242 28.0702 941.968 27.57H941.968ZM942.497 28.6041C941.783 29.0923 941.132 29.5468 940.474 29.9825C940.306 30.0936 940.248 30.2236 940.249 30.4489C940.258 31.7836 940.253 33.1174 940.254 34.4521C940.254 34.5454 940.263 34.6397 940.27 34.8024C941.015 34.2904 941.721 33.8091 942.422 33.3168C942.468 33.2841 942.493 33.169 942.494 33.0926C942.498 31.6239 942.498 30.1552 942.498 28.6041H942.497Z" fill="#0597BA"/>
<path d="M922.527 17.4135C921.441 17.4135 920.355 17.4121 919.269 17.4143C919.01 17.4143 918.784 17.3603 918.668 17.1368C918.536 16.8815 918.693 16.6011 919.009 16.5308C919.12 16.5064 919.238 16.502 919.353 16.502C921.461 16.5005 923.57 16.5005 925.679 16.5005C925.731 16.5005 925.784 16.499 925.837 16.5012C926.198 16.5197 926.434 16.7054 926.426 16.9644C926.418 17.2226 926.175 17.4098 925.817 17.4113C924.72 17.4158 923.624 17.4128 922.527 17.4128L922.527 17.4135Z" fill="#0597BA"/>
<path d="M931.89 32.2196C931.906 32.7895 931.503 33.0877 931.134 32.9023C930.926 32.7983 930.734 32.6561 930.536 32.5276C929.029 31.5506 927.519 30.5776 926.018 29.5898C925.867 29.4908 925.681 29.327 925.654 29.1632C925.622 28.9709 925.697 28.7031 925.811 28.5452C925.971 28.3245 926.222 28.3569 926.44 28.4971C926.988 28.8483 927.532 29.2053 928.079 29.5594C929.218 30.298 930.362 31.0298 931.494 31.7831C931.674 31.9028 931.802 32.1195 931.89 32.2186L931.89 32.2196Z" fill="#0597BA"/>
<path d="M929.549 33.1857C929.563 33.7399 929.097 34.0189 928.688 33.7925C928.071 33.4516 927.467 33.0852 926.857 32.7292C926.558 32.5545 926.254 32.3845 925.96 32.2004C925.657 32.0106 925.568 31.7016 925.718 31.4226C925.875 31.1323 926.204 31.0393 926.527 31.2234C927.441 31.7467 928.351 32.2746 929.251 32.8213C929.401 32.9124 929.488 33.1087 929.549 33.1857Z" fill="#0597BA"/>
<path d="M967.087 27.719C967.722 27.719 968.362 27.7247 969.008 27.736C969.654 27.736 970.289 27.7473 970.912 27.77C971.535 27.7927 972.119 27.8323 972.663 27.889L972.544 29.776H968.039C967.756 29.776 967.54 29.8497 967.393 29.997C967.257 30.1443 967.189 30.3597 967.189 30.643V36.627C967.189 36.9103 967.257 37.1257 967.393 37.273C967.54 37.4203 967.756 37.494 968.039 37.494H972.544L972.663 39.381C972.119 39.4263 971.535 39.466 970.912 39.5C970.289 39.5227 969.654 39.534 969.008 39.534C968.362 39.5453 967.722 39.551 967.087 39.551C966.339 39.551 965.733 39.3357 965.268 38.905C964.815 38.463 964.588 37.8907 964.588 37.188V30.082C964.588 29.368 964.815 28.7957 965.268 28.365C965.733 27.9343 966.339 27.719 967.087 27.719ZM964.894 32.479H971.915V34.315H964.894V32.479ZM980.196 30.881C981.783 30.881 982.576 31.6573 982.576 33.21V39.5H980.06V33.992C980.06 33.618 979.992 33.363 979.856 33.227C979.72 33.0797 979.488 33.006 979.159 33.006C978.796 33.006 978.422 33.0797 978.037 33.227C977.652 33.363 977.176 33.5783 976.609 33.873L976.49 32.462C977.091 31.952 977.703 31.561 978.326 31.289C978.961 31.017 979.584 30.881 980.196 30.881ZM976.371 31.102L976.66 32.768L976.864 32.989V39.5H974.348V31.102H976.371ZM987.839 28.773V36.814C987.839 37.12 987.907 37.341 988.043 37.477C988.19 37.6017 988.428 37.664 988.757 37.664H989.845L990.117 39.364C989.913 39.432 989.664 39.4887 989.369 39.534C989.074 39.5907 988.78 39.6303 988.485 39.653C988.19 39.687 987.941 39.704 987.737 39.704C986.978 39.704 986.383 39.5 985.952 39.092C985.533 38.684 985.323 38.1117 985.323 37.375L985.306 28.773H987.839ZM990.185 31.102V32.751H983.844V31.187L985.476 31.102H990.185ZM993.503 31.102L993.809 32.768L994.047 32.989V39.5H991.531V31.102H993.503ZM997.6 30.881L997.362 33.21H996.665C996.268 33.21 995.854 33.2667 995.424 33.38C994.993 33.4933 994.449 33.6633 993.792 33.89L993.622 32.479C994.211 31.9577 994.806 31.561 995.407 31.289C996.007 31.017 996.591 30.881 997.158 30.881H997.6ZM1002.63 30.881C1004.05 30.881 1005.06 31.1247 1005.67 31.612C1006.3 32.088 1006.61 32.802 1006.61 33.754C1006.62 34.5247 1006.43 35.1027 1006.03 35.488C1005.63 35.862 1004.95 36.049 1003.97 36.049H999.282V34.638H1003.28C1003.66 34.638 1003.91 34.5587 1004.01 34.4C1004.12 34.23 1004.18 33.9977 1004.18 33.703C1004.17 33.3063 1004.05 33.0343 1003.82 32.887C1003.61 32.7283 1003.24 32.649 1002.72 32.649C1002.25 32.649 1001.89 32.7113 1001.63 32.836C1001.37 32.9607 1001.19 33.1987 1001.08 33.55C1000.98 33.9013 1000.93 34.4113 1000.93 35.08C1000.93 35.7827 1000.99 36.3267 1001.12 36.712C1001.24 37.086 1001.45 37.3467 1001.75 37.494C1002.05 37.6413 1002.47 37.715 1003 37.715C1003.39 37.715 1003.87 37.7037 1004.43 37.681C1005.01 37.647 1005.59 37.596 1006.17 37.528L1006.4 39.075C1006.08 39.2337 1005.7 39.3583 1005.28 39.449C1004.86 39.5397 1004.43 39.602 1003.99 39.636C1003.55 39.6813 1003.12 39.704 1002.72 39.704C1001.65 39.704 1000.79 39.551 1000.13 39.245C999.486 38.9277 999.015 38.446 998.721 37.8C998.437 37.154 998.296 36.3267 998.296 35.318C998.296 34.2187 998.443 33.346 998.738 32.7C999.032 32.054 999.497 31.5893 1000.13 31.306C1000.77 31.0227 1001.6 30.881 1002.63 30.881ZM1011.99 30.881C1012.96 30.881 1013.73 30.9717 1014.3 31.153C1014.88 31.3343 1015.29 31.6177 1015.54 32.003C1015.8 32.3883 1015.93 32.904 1015.93 33.55C1015.93 34.1733 1015.81 34.6833 1015.56 35.08C1015.31 35.4653 1014.89 35.7487 1014.3 35.93C1013.72 36.1113 1012.95 36.202 1011.97 36.202C1011 36.202 1010.21 36.1113 1009.63 35.93C1009.05 35.7487 1008.63 35.4653 1008.37 35.08C1008.12 34.6947 1007.99 34.1847 1007.99 33.55C1007.99 32.9153 1008.12 32.4053 1008.37 32.02C1008.63 31.6233 1009.05 31.3343 1009.64 31.153C1010.23 30.9717 1011.01 30.881 1011.99 30.881ZM1011.97 32.428C1011.35 32.428 1010.92 32.513 1010.68 32.683C1010.44 32.8417 1010.32 33.1307 1010.32 33.55C1010.32 33.9693 1010.44 34.264 1010.68 34.434C1010.92 34.604 1011.35 34.689 1011.97 34.689C1012.59 34.689 1013.02 34.604 1013.25 34.434C1013.47 34.264 1013.59 33.9693 1013.59 33.55C1013.59 33.1307 1013.47 32.8417 1013.25 32.683C1013.02 32.513 1012.59 32.428 1011.97 32.428ZM1016.9 31.102L1016.77 32.173L1014.52 32.462L1013.91 31.102H1016.9ZM1009.44 35.692L1010.7 35.913C1010.54 36.0037 1010.42 36.1453 1010.36 36.338C1010.3 36.5307 1010.32 36.712 1010.41 36.882C1010.5 37.052 1010.7 37.154 1011 37.188L1014.1 37.545C1014.98 37.6357 1015.6 37.885 1015.97 38.293C1016.33 38.6897 1016.51 39.2733 1016.51 40.044C1016.51 40.7693 1016.36 41.3247 1016.07 41.71C1015.77 42.1067 1015.3 42.3787 1014.66 42.526C1014.01 42.6733 1013.15 42.747 1012.07 42.747C1011.19 42.747 1010.46 42.7017 1009.88 42.611C1009.31 42.5317 1008.86 42.3957 1008.52 42.203C1008.19 42.0103 1007.96 41.7553 1007.82 41.438C1007.7 41.132 1007.64 40.7467 1007.64 40.282C1007.64 39.9307 1007.7 39.6303 1007.82 39.381C1007.95 39.1203 1008.16 38.888 1008.45 38.684C1008.76 38.48 1009.18 38.293 1009.73 38.123L1010.97 37.681L1011.87 38.038L1011.19 38.48C1010.91 38.684 1010.67 38.8597 1010.49 39.007C1010.32 39.143 1010.2 39.279 1010.12 39.415C1010.05 39.551 1010.02 39.7323 1010.02 39.959C1010.02 40.2197 1010.07 40.418 1010.19 40.554C1010.3 40.7013 1010.5 40.7977 1010.8 40.843C1011.1 40.8997 1011.52 40.928 1012.04 40.928C1012.58 40.928 1013.01 40.8997 1013.31 40.843C1013.62 40.7977 1013.83 40.707 1013.94 40.571C1014.07 40.435 1014.13 40.2423 1014.13 39.993C1014.13 39.7777 1014.09 39.619 1013.99 39.517C1013.92 39.415 1013.77 39.3413 1013.57 39.296C1013.38 39.2393 1013.1 39.1883 1012.75 39.143L1010.12 38.854C1009.68 38.8087 1009.33 38.6897 1009.08 38.497C1008.83 38.3043 1008.66 38.072 1008.55 37.8C1008.46 37.5167 1008.44 37.2333 1008.49 36.95C1008.53 36.6667 1008.63 36.4117 1008.79 36.185C1008.96 35.9583 1009.18 35.794 1009.44 35.692ZM1022.5 30.881C1023.2 30.881 1023.79 30.9773 1024.28 31.17C1024.77 31.3513 1025.14 31.6687 1025.39 32.122C1025.65 32.564 1025.78 33.176 1025.78 33.958V39.5H1023.77L1023.42 37.681L1023.25 37.426V33.941C1023.25 33.5443 1023.15 33.2553 1022.96 33.074C1022.77 32.8927 1022.42 32.802 1021.9 32.802C1021.47 32.802 1020.93 32.819 1020.29 32.853C1019.64 32.8757 1018.98 32.9097 1018.3 32.955L1018.06 31.289C1018.47 31.2097 1018.94 31.1417 1019.47 31.085C1020 31.0283 1020.54 30.983 1021.07 30.949C1021.6 30.9037 1022.08 30.881 1022.5 30.881ZM1024.74 34.332L1024.72 35.743L1020.98 35.76C1020.68 35.76 1020.46 35.8337 1020.32 35.981C1020.2 36.1283 1020.13 36.3267 1020.13 36.576V36.984C1020.13 37.2673 1020.21 37.4883 1020.37 37.647C1020.53 37.7943 1020.79 37.868 1021.14 37.868C1021.43 37.868 1021.75 37.8057 1022.09 37.681C1022.44 37.5563 1022.79 37.3807 1023.13 37.154C1023.47 36.9273 1023.77 36.661 1024.03 36.355V37.443C1023.93 37.613 1023.77 37.8283 1023.57 38.089C1023.38 38.3383 1023.13 38.5877 1022.82 38.837C1022.51 39.075 1022.16 39.279 1021.75 39.449C1021.34 39.619 1020.88 39.704 1020.36 39.704C1019.85 39.704 1019.39 39.6133 1018.98 39.432C1018.57 39.2507 1018.25 38.9843 1018.01 38.633C1017.77 38.2817 1017.65 37.8453 1017.65 37.324V36.457C1017.65 35.7883 1017.88 35.267 1018.33 34.893C1018.79 34.519 1019.41 34.332 1020.2 34.332H1024.74ZM1033.4 31.102L1033.7 32.768L1033.94 32.989V39.5H1031.42V31.102H1033.4ZM1037.49 30.881L1037.26 33.21H1036.56C1036.16 33.21 1035.75 33.2667 1035.32 33.38C1034.89 33.4933 1034.34 33.6633 1033.69 33.89L1033.52 32.479C1034.1 31.9577 1034.7 31.561 1035.3 31.289C1035.9 31.017 1036.48 30.881 1037.05 30.881H1037.49ZM1043.07 30.881C1043.77 30.881 1044.36 30.9773 1044.85 31.17C1045.34 31.3513 1045.71 31.6687 1045.96 32.122C1046.22 32.564 1046.35 33.176 1046.35 33.958V39.5H1044.34L1043.98 37.681L1043.81 37.426V33.941C1043.81 33.5443 1043.72 33.2553 1043.53 33.074C1043.34 32.8927 1042.99 32.802 1042.47 32.802C1042.04 32.802 1041.5 32.819 1040.86 32.853C1040.21 32.8757 1039.55 32.9097 1038.87 32.955L1038.63 31.289C1039.04 31.2097 1039.51 31.1417 1040.04 31.085C1040.57 31.0283 1041.11 30.983 1041.64 30.949C1042.17 30.9037 1042.65 30.881 1043.07 30.881ZM1045.31 34.332L1045.29 35.743L1041.55 35.76C1041.25 35.76 1041.03 35.8337 1040.89 35.981C1040.77 36.1283 1040.7 36.3267 1040.7 36.576V36.984C1040.7 37.2673 1040.78 37.4883 1040.94 37.647C1041.1 37.7943 1041.36 37.868 1041.71 37.868C1042 37.868 1042.32 37.8057 1042.66 37.681C1043.01 37.5563 1043.36 37.3807 1043.7 37.154C1044.04 36.9273 1044.34 36.661 1044.6 36.355V37.443C1044.49 37.613 1044.34 37.8283 1044.14 38.089C1043.94 38.3383 1043.7 38.5877 1043.39 38.837C1043.08 39.075 1042.73 39.279 1042.32 39.449C1041.91 39.619 1041.45 39.704 1040.92 39.704C1040.41 39.704 1039.96 39.6133 1039.55 39.432C1039.14 39.2507 1038.82 38.9843 1038.58 38.633C1038.34 38.2817 1038.22 37.8453 1038.22 37.324V36.457C1038.22 35.7883 1038.45 35.267 1038.9 34.893C1039.35 34.519 1039.98 34.332 1040.77 34.332H1045.31ZM1044.48 26.512L1045.57 28.212L1041.77 30.099L1041.03 29.028L1044.48 26.512ZM1053.85 30.898C1054.9 30.898 1055.66 31.2833 1056.11 32.054C1056.56 32.8247 1056.79 33.9297 1056.79 35.369C1056.79 36.491 1056.67 37.3693 1056.43 38.004C1056.21 38.6387 1055.86 39.0863 1055.38 39.347C1054.92 39.5963 1054.33 39.721 1053.63 39.721C1053.03 39.721 1052.46 39.636 1051.91 39.466C1051.37 39.296 1050.89 39.0127 1050.47 38.616L1050.64 37.494C1051.01 37.6073 1051.35 37.7093 1051.66 37.8C1051.97 37.8793 1052.33 37.919 1052.73 37.919C1053.09 37.919 1053.38 37.8567 1053.59 37.732C1053.81 37.6073 1053.96 37.3637 1054.05 37.001C1054.16 36.627 1054.21 36.0887 1054.21 35.386C1054.21 34.6947 1054.16 34.1677 1054.07 33.805C1053.98 33.431 1053.83 33.176 1053.63 33.04C1053.42 32.8927 1053.16 32.819 1052.83 32.819C1052.47 32.819 1052.13 32.8927 1051.83 33.04C1051.52 33.176 1051.18 33.3743 1050.79 33.635L1050.47 32.479C1050.69 32.173 1050.98 31.901 1051.33 31.663C1051.7 31.425 1052.09 31.238 1052.52 31.102C1052.95 30.966 1053.4 30.898 1053.85 30.898ZM1050.36 31.102L1050.6 32.632L1050.84 32.887V38.344L1050.76 38.548C1050.79 38.888 1050.81 39.2393 1050.82 39.602C1050.85 39.976 1050.85 40.3443 1050.84 40.707V42.73H1048.32V31.102H1050.36ZM1061.09 31.102V39.5H1058.59V31.102H1061.09ZM1060.39 27.396C1060.89 27.396 1061.14 27.651 1061.14 28.161V29.062C1061.14 29.572 1060.89 29.827 1060.39 29.827H1059.3C1058.8 29.827 1058.55 29.572 1058.55 29.062V28.161C1058.55 27.651 1058.8 27.396 1059.3 27.396H1060.39ZM1066.09 30.881C1066.68 30.881 1067.25 30.966 1067.79 31.136C1068.34 31.306 1068.83 31.5837 1069.25 31.969L1069.08 33.125C1068.7 33.0117 1068.35 32.9097 1068.04 32.819C1067.74 32.7283 1067.38 32.683 1066.97 32.683C1066.62 32.683 1066.34 32.7453 1066.12 32.87C1065.91 32.9947 1065.75 33.2383 1065.65 33.601C1065.55 33.9637 1065.49 34.502 1065.49 35.216C1065.49 35.8847 1065.54 36.3947 1065.63 36.746C1065.73 37.086 1065.89 37.324 1066.09 37.46C1066.3 37.5847 1066.58 37.647 1066.91 37.647C1067.2 37.647 1067.45 37.6187 1067.67 37.562C1067.89 37.494 1068.1 37.3977 1068.32 37.273C1068.53 37.137 1068.78 36.9727 1069.05 36.78L1069.23 38.021C1068.89 38.497 1068.45 38.8993 1067.91 39.228C1067.36 39.5453 1066.7 39.704 1065.9 39.704C1064.83 39.704 1064.05 39.3187 1063.59 38.548C1063.14 37.7773 1062.91 36.6723 1062.91 35.233C1062.91 34.111 1063.02 33.2383 1063.25 32.615C1063.49 31.9803 1063.85 31.5327 1064.32 31.272C1064.8 31.0113 1065.39 30.881 1066.09 30.881ZM1071.31 27.6V39.5H1069.32L1069.06 37.953L1068.79 37.766V32.258L1068.89 32.037C1068.86 31.6857 1068.83 31.3343 1068.81 30.983C1068.8 30.6203 1068.79 30.252 1068.79 29.878V27.6H1071.31ZM1077.8 30.881C1078.5 30.881 1079.09 30.9773 1079.58 31.17C1080.07 31.3513 1080.44 31.6687 1080.69 32.122C1080.95 32.564 1081.08 33.176 1081.08 33.958V39.5H1079.07L1078.71 37.681L1078.54 37.426V33.941C1078.54 33.5443 1078.45 33.2553 1078.26 33.074C1078.07 32.8927 1077.72 32.802 1077.2 32.802C1076.77 32.802 1076.23 32.819 1075.59 32.853C1074.94 32.8757 1074.28 32.9097 1073.6 32.955L1073.36 31.289C1073.77 31.2097 1074.24 31.1417 1074.77 31.085C1075.3 31.0283 1075.84 30.983 1076.37 30.949C1076.9 30.9037 1077.38 30.881 1077.8 30.881ZM1080.04 34.332L1080.02 35.743L1076.28 35.76C1075.98 35.76 1075.76 35.8337 1075.62 35.981C1075.5 36.1283 1075.43 36.3267 1075.43 36.576V36.984C1075.43 37.2673 1075.51 37.4883 1075.67 37.647C1075.83 37.7943 1076.09 37.868 1076.44 37.868C1076.73 37.868 1077.05 37.8057 1077.39 37.681C1077.74 37.5563 1078.09 37.3807 1078.43 37.154C1078.77 36.9273 1079.07 36.661 1079.33 36.355V37.443C1079.22 37.613 1079.07 37.8283 1078.87 38.089C1078.68 38.3383 1078.43 38.5877 1078.12 38.837C1077.81 39.075 1077.46 39.279 1077.05 39.449C1076.64 39.619 1076.18 39.704 1075.65 39.704C1075.14 39.704 1074.69 39.6133 1074.28 39.432C1073.87 39.2507 1073.55 38.9843 1073.31 38.633C1073.07 38.2817 1072.95 37.8453 1072.95 37.324V36.457C1072.95 35.7883 1073.18 35.267 1073.63 34.893C1074.09 34.519 1074.71 34.332 1075.5 34.332H1080.04Z" fill="#0597BA"/>
<defs>
<clipPath id="clip0_4704_31732">
<rect width="33" height="33" fill="white" transform="translate(685 16)"/>
</clipPath>
</defs>
</svg>
